<?xml version="1.0" encoding="UTF-8"?>
<svg version="1.1" xmlns="http://www.w3.org/2000/svg" width="2000" height="572">
<path d="M0 0 C1.30005478 -0.00241196 2.60010956 -0.00482391 3.93955994 -0.00730896 C6.67723292 -0.0101508 9.41408044 0.00437445 12.15161133 0.03198242 C15.64071292 0.06609844 19.12834402 0.06002144 22.61751652 0.04131985 C25.97432062 0.02814487 29.33070611 0.04648323 32.6875 0.0625 C34.55185448 0.0550602 34.55185448 0.0550602 36.45387268 0.04747009 C44.59899451 0.15756722 50.22166177 1.07488528 56.51953125 6.59375 C57.05835938 7.24472656 57.5971875 7.89570313 58.15234375 8.56640625 C58.70664062 9.21480469 59.2609375 9.86320313 59.83203125 10.53125 C63.73870572 16.20120727 63.56323009 21.46280164 63.53804016 28.12910461 C63.54186571 29.19858453 63.54569126 30.26806445 63.54963273 31.36995286 C63.55996683 34.96063354 63.55596953 38.55115442 63.55200195 42.1418457 C63.55634864 44.71444853 63.56153164 47.28705006 63.56748962 49.85964966 C63.5802463 56.13088309 63.58202848 62.40207372 63.57968936 68.67331795 C63.5779043 73.78121671 63.57965992 78.88910252 63.5839138 83.99699974 C63.58450899 84.72486367 63.58510418 85.4527276 63.58571741 86.20264801 C63.58692925 87.68166779 63.58814339 89.16068757 63.58935978 90.63970735 C63.60024257 104.52043518 63.59807147 118.40113874 63.59197494 132.28186794 C63.58682562 144.9300595 63.59800714 157.57817357 63.61707316 170.22634981 C63.63654411 183.24437413 63.64469015 196.26236199 63.6409499 209.28040093 C63.63904917 216.57605703 63.64141239 223.87164753 63.65566444 231.16729164 C63.66897017 238.04804825 63.66619368 244.9286497 63.65325356 251.80940628 C63.65091108 254.31653205 63.65353731 256.82366894 63.66187668 259.33078194 C63.79020092 300.95898402 57.02348856 342.17432475 29.27734375 374.62890625 C28.40335938 375.65757812 28.40335938 375.65757812 27.51171875 376.70703125 C12.06609273 393.40078866 -10.61464901 401.89220392 -32.72265625 404.62890625 C-35.54532538 404.72588107 -38.34364626 404.78095499 -41.16584778 404.7828064 C-41.98965067 404.78718865 -42.81345356 404.7915709 -43.66222018 404.79608595 C-46.40868635 404.80938654 -49.15512051 404.81563291 -51.90161133 404.82177734 C-53.87654258 404.82968495 -55.85147241 404.8379543 -57.82640076 404.84655762 C-64.2983158 404.87269243 -70.77023704 404.88807257 -77.2421875 404.90234375 C-79.47418407 404.90770616 -81.70618061 404.91308367 -83.93817711 404.9184761 C-93.22279329 404.94008857 -102.50740779 404.95882537 -111.79204273 404.9700985 C-125.08064668 404.98634235 -138.36895854 405.01954976 -151.6574524 405.07649934 C-161.01223719 405.11522009 -170.36694389 405.13473349 -179.7218067 405.14001906 C-185.30458289 405.14366833 -190.8870469 405.15564589 -196.4697361 405.1881218 C-201.72214874 405.2182413 -206.97406088 405.22450024 -212.22654152 405.21273804 C-214.14937203 405.21251766 -216.07222606 405.22079297 -217.99497604 405.23839188 C-238.61057731 405.41675318 -238.61057731 405.41675318 -246.63840961 397.81477928 C-251.4480635 392.69659528 -252.967529 387.96934373 -253.01318359 380.94604492 C-253.01990082 380.29492233 -253.02661804 379.64379974 -253.03353882 378.97294617 C-253.05245976 376.83084374 -253.05644014 374.68905569 -253.05859375 372.546875 C-253.0650265 371.04860814 -253.07175521 369.55034252 -253.07876587 368.05207825 C-253.09072436 364.91416515 -253.09444824 361.77636201 -253.09326172 358.63842773 C-253.09305877 354.63372305 -253.12034165 350.62972991 -253.15480614 346.6251936 C-253.1771364 343.53063268 -253.18109738 340.43624125 -253.18004227 337.34160805 C-253.18238976 335.86612818 -253.19116496 334.39064303 -253.206707 332.91524315 C-253.29471227 323.6969577 -253.10518006 316.6300368 -246.7578125 309.38671875 C-245.78134766 308.57847656 -245.78134766 308.57847656 -244.78515625 307.75390625 C-244.13675781 307.19960938 -243.48835937 306.6453125 -242.8203125 306.07421875 C-238.35309903 302.99625044 -234.52339986 302.37822138 -229.14810181 302.37062073 C-228.50104479 302.36694502 -227.85398778 302.36326932 -227.18732297 302.35948223 C-225.02665642 302.3495304 -222.86624868 302.3536475 -220.70556641 302.35766602 C-219.15282926 302.35327697 -217.60009447 302.34797416 -216.04736328 302.34182739 C-212.7052733 302.3303342 -209.36324666 302.32486842 -206.02113724 302.323946 C-200.72378055 302.322001 -195.42655395 302.30392071 -190.12924194 302.28318787 C-176.96323218 302.23404353 -163.79718687 302.20320209 -150.63110352 302.18188477 C-140.41264212 302.16530907 -130.19429199 302.14232563 -119.97590482 302.09886402 C-114.72394023 302.07723112 -109.47218771 302.0690165 -104.2201817 302.07125676 C-100.93073832 302.06957395 -97.64142983 302.05542695 -94.35203552 302.03804398 C-92.84253814 302.03250761 -91.33301202 302.03189985 -89.82351303 302.03698158 C-72.71669044 302.08846868 -55.27203815 299.94612471 -42.16015625 287.81640625 C-33.47344496 278.18103912 -31.41009928 266.86295746 -31.46437073 254.29930115 C-31.46069502 253.29678552 -31.45701932 252.2942699 -31.45323223 251.26137501 C-31.44329964 247.92216284 -31.44739357 244.58311874 -31.45141602 241.24389648 C-31.44702634 238.84178491 -31.4417233 236.43967486 -31.43557739 234.03756714 C-31.42260264 228.20272183 -31.41837545 222.36791563 -31.41733737 216.53305726 C-31.41531165 209.73168936 -31.39951065 202.93037426 -31.38220083 196.12903059 C-31.35140367 183.99073338 -31.32721678 171.85243428 -31.30932617 159.71411133 C-31.30825349 158.98859871 -31.30718081 158.26308608 -31.30607563 157.51558823 C-31.2942525 149.41916661 -31.28404604 141.32274424 -31.27563477 133.22631836 C-31.2725606 130.28865558 -31.26947185 127.35099282 -31.26635742 124.41333008 C-31.26559208 123.6884039 -31.26482674 122.96347772 -31.26403821 122.21658408 C-31.25094794 110.12057642 -31.22629939 98.02462282 -31.19261402 85.92865521 C-31.17416863 79.1433031 -31.16174265 72.35803995 -31.16391182 65.57266045 C-31.1656618 59.19419739 -31.1539043 52.81590455 -31.13179398 46.43748093 C-31.12619463 44.09779453 -31.12570908 41.75808942 -31.13073158 39.41840172 C-31.13687252 36.22257064 -31.12464158 33.02730924 -31.10792542 29.83152771 C-31.11413723 28.90768719 -31.12034905 27.98384666 -31.1267491 27.03201097 C-31.05485915 19.48024428 -29.58950672 12.76081382 -24.26622009 7.00071716 C-16.86469002 0.42275813 -9.60063099 -0.10257825 0 0 Z " fill="#0A0943" transform="translate(488.72265625,163.37109375)"/>
<path d="M0 0 C1.12015816 -0.00913666 1.12015816 -0.00913666 2.26294577 -0.01845789 C4.75476882 -0.03505108 7.24607881 -0.03031746 9.73794556 -0.0255127 C11.52878854 -0.03285519 13.3196268 -0.04144194 15.11045837 -0.05117798 C19.96796529 -0.07338407 24.82530252 -0.0763251 29.68285322 -0.07443047 C33.74095654 -0.07431072 37.79902397 -0.08287659 41.8571173 -0.09120798 C51.4328149 -0.11043892 61.00842534 -0.11332704 70.58413696 -0.10656738 C80.45560382 -0.09992705 90.32669698 -0.12279142 100.19808805 -0.15988111 C108.67981441 -0.1905906 117.16142064 -0.20193677 125.64320147 -0.1980443 C130.70612064 -0.19597805 135.76874902 -0.201437 140.83161545 -0.22593689 C145.59406261 -0.24822196 150.35590279 -0.24631154 155.11835289 -0.22600937 C156.86301458 -0.22260241 158.60771727 -0.22767491 160.35232353 -0.24199295 C177.41443042 -0.37232512 177.41443042 -0.37232512 183.38491821 5.39440918 C188.51142563 10.79073278 189.63368474 15.46615797 189.65234375 22.81330872 C189.65687486 23.55105929 189.66140598 24.28880987 189.6660744 25.04891652 C189.67871459 27.51611417 189.67709828 29.98309097 189.67544556 32.45031738 C189.68143107 34.22130619 189.68823667 35.99229238 189.69580078 37.76327515 C189.71346625 42.57122808 189.71815641 47.37910982 189.71943235 52.18709207 C189.72085427 55.19214572 189.72512466 58.19718129 189.73042679 61.20223045 C189.74892931 71.68939742 189.75709717 82.17651354 189.75552368 92.66369629 C189.75432242 102.43340608 189.77542119 112.2028949 189.80701101 121.97254878 C189.83317916 130.36507241 189.84389074 138.7575239 189.84261286 147.15008801 C189.84210336 152.16044869 189.84777996 157.17061301 189.86896896 162.180933 C189.88836023 166.89486306 189.88846972 171.60840963 189.8739357 176.32235336 C189.87184756 178.04927697 189.8765488 179.77622464 189.88865662 181.50310707 C189.99492797 197.71429309 189.99492797 197.71429309 185.38491821 204.39440918 C183.34976196 206.45300293 183.34976196 206.45300293 181.32241821 207.83190918 C180.65081665 208.30499512 179.97921509 208.77808105 179.28726196 209.26550293 C175.3356432 211.61050873 171.64974819 211.54276728 167.20652771 211.5415802 C166.47048598 211.54525689 165.73444426 211.54893358 164.97609824 211.55272168 C162.5027454 211.56375957 160.02943458 211.56760254 157.55606079 211.57141113 C155.78536851 211.57767574 154.01467755 211.58432254 152.24398804 211.59132385 C146.4224845 211.61236822 140.60098069 211.62272709 134.77944946 211.63269043 C132.77524998 211.63673795 130.77105063 211.64085487 128.76685143 211.64504051 C119.3503529 211.66409358 109.93386221 211.67832396 100.51734811 211.68665248 C89.64929883 211.69642356 78.7814533 211.72273927 67.91347581 211.76315337 C59.5125088 211.79332086 51.11160017 211.80812199 42.71058005 211.81143349 C37.69346975 211.81378341 32.67657709 211.82273619 27.65952492 211.84789467 C22.93743085 211.87119118 18.21569746 211.87540224 13.49356079 211.86513329 C11.76340726 211.86463819 10.03323588 211.87095098 8.30313683 211.88468933 C-9.37593694 212.01718404 -9.37593694 212.01718404 -16.67367554 205.57800293 C-17.1287146 205.00179199 -17.58375366 204.42558105 -18.05258179 203.83190918 C-18.52566772 203.25312012 -18.99875366 202.67433105 -19.48617554 202.07800293 C-22.01359708 198.30873412 -21.76091212 194.47485897 -21.75552368 190.12663269 C-21.7584948 189.38101273 -21.76146593 188.63539277 -21.76452708 187.86717826 C-21.77321866 185.36151413 -21.77472272 182.85589775 -21.7762146 180.35021973 C-21.78084244 178.55657855 -21.78586706 176.76293836 -21.79125977 174.96929932 C-21.80438888 170.09113088 -21.81082971 165.2129762 -21.81527042 160.33479285 C-21.81820028 157.28789379 -21.82230492 154.2409985 -21.8267746 151.19410133 C-21.84045078 141.66334223 -21.85011689 132.13259174 -21.85397649 122.60182351 C-21.8584579 111.59569082 -21.87600915 100.58968228 -21.90497708 89.58358735 C-21.92658487 81.07904228 -21.93668028 72.57453217 -21.93801761 64.06995994 C-21.93906627 58.98924065 -21.9449871 53.90863804 -21.96283722 48.82794762 C-21.9793023 44.04844938 -21.981481 39.26915575 -21.97269821 34.48963928 C-21.971927 32.73607651 -21.97628158 30.98250281 -21.98615646 29.22896767 C-21.99885475 26.83344666 -21.99301103 24.4386526 -21.98257446 22.0431366 C-21.99063087 21.35061647 -21.99868727 20.65809634 -22.00698781 19.94459075 C-21.94651644 14.00231178 -20.13547922 10.16135754 -16.30258179 5.70690918 C-11.16457222 1.28583118 -6.67992962 -0.05164661 0 0 Z " fill="#3E4EDA" transform="translate(21.615081787109375,357.6055908203125)"/>
<path d="M0 0 C1.29500427 -0.00846954 2.59000854 -0.01693909 3.92425537 -0.02566528 C7.46570432 -0.04782925 11.00692024 -0.05081454 14.54842901 -0.04891777 C17.51050814 -0.04879782 20.47253834 -0.05737189 23.43460381 -0.06569529 C30.42616251 -0.08491122 37.41760182 -0.08781993 44.40917969 -0.08105469 C51.6086551 -0.07441614 58.80761789 -0.09727442 66.00698936 -0.13436842 C72.19999536 -0.16511295 78.39283685 -0.1764203 84.58591759 -0.1725316 C88.27954126 -0.17046885 91.97276597 -0.17586907 95.66631699 -0.20042419 C99.78830389 -0.22692378 103.90921551 -0.21292749 108.03125 -0.1953125 C109.24606049 -0.20857574 110.46087097 -0.22183899 111.7124939 -0.23550415 C118.83010156 -0.16489145 123.66852184 0.70227863 129.14501953 5.41992188 C135.79588883 12.24581405 135.43868583 19.82288598 135.41967773 28.81591797 C135.42478867 30.06215439 135.4298996 31.30839081 135.43516541 32.59239197 C135.44666274 35.99957042 135.44913831 39.40650514 135.44660211 42.81368589 C135.44552966 45.6639134 135.45042281 48.51411866 135.45520753 51.36434138 C135.46628981 58.09219515 135.46674752 64.81999309 135.46069336 71.54785156 C135.45465582 78.47454289 135.46696182 85.40103097 135.48826343 92.32768762 C135.50591261 98.2871331 135.51187552 104.24651408 135.50862569 110.20598471 C135.50681774 113.75977904 135.50939975 117.31342842 135.52334023 120.86719894 C135.53831676 124.83325847 135.52891943 128.7990617 135.51733398 132.76513672 C135.52497772 133.93319351 135.53262146 135.10125031 135.54049683 136.30470276 C135.49373123 143.55692902 135.08111752 149.82648852 130.31298828 155.66210938 C129.65943359 156.2009375 129.00587891 156.73976563 128.33251953 157.29492188 C127.36378906 158.12636719 127.36378906 158.12636719 126.37548828 158.97460938 C119.92670314 163.1533318 113.17954034 162.71619055 105.76489258 162.71044922 C104.52026245 162.71716644 103.27563232 162.72388367 101.99328613 162.73080444 C98.5901782 162.74651901 95.18731439 162.75315782 91.78418708 162.75443602 C89.65435547 162.75586097 87.52454919 162.76013709 85.39472389 162.76543045 C77.95380666 162.78391568 70.51296092 162.79210304 63.07202148 162.79052734 C56.15325146 162.78932664 49.23479373 162.81041869 42.31610268 162.84201467 C36.36173537 162.86823067 30.40746972 162.87889241 24.45304519 162.87761652 C20.90307578 162.87710841 17.35338406 162.88270733 13.80347252 162.90397263 C9.83996947 162.92706876 5.87688931 162.91780154 1.91333008 162.90576172 C0.74886856 162.91700073 -0.41559296 162.92823975 -1.61534119 162.93981934 C-8.95437263 162.8832906 -15.80560443 162.1229457 -21.43767262 156.97260094 C-25.39482911 152.43749729 -27.10311938 148.86653156 -27.11567688 142.89212036 C-27.12276169 141.76779602 -27.1298465 140.64347168 -27.137146 139.4850769 C-27.13466858 138.25588531 -27.13219116 137.02669373 -27.12963867 135.76025391 C-27.1347496 134.4623291 -27.13986053 133.1644043 -27.14512634 131.82714844 C-27.1585141 128.26921602 -27.15909519 124.71138984 -27.15656304 121.15343714 C-27.15549299 118.18134071 -27.16037767 115.20926574 -27.16516846 112.23717391 C-27.17626327 105.22369205 -27.17670148 98.21026374 -27.1706543 91.19677734 C-27.16461614 83.96675941 -27.17692147 76.73693617 -27.19822437 69.50695145 C-27.2158522 63.29535086 -27.22183979 57.08381217 -27.21858662 50.8721875 C-27.21677521 47.16416944 -27.21939553 43.4562902 -27.23330116 39.74829483 C-27.24823414 35.61152809 -27.23889908 31.4751563 -27.22729492 27.33837891 C-27.23493866 26.11323578 -27.2425824 24.88809265 -27.25045776 23.62582397 C-27.20416278 16.16797745 -26.53222229 11.53131102 -21.54248047 5.73242188 C-14.71480913 -0.14255114 -8.66128534 -0.02082504 0 0 Z " fill="#34C49D" transform="translate(262.85498046875,163.580078125)"/>
<path d="M0 0 C1.30005478 -0.00241196 2.60010956 -0.00482391 3.93955994 -0.00730896 C6.67723292 -0.0101508 9.41408044 0.00437445 12.15161133 0.03198242 C15.64071292 0.06609844 19.12834402 0.06002144 22.61751652 0.04131985 C25.97432062 0.02814487 29.33070611 0.04648323 32.6875 0.0625 C34.55185448 0.0550602 34.55185448 0.0550602 36.45387268 0.04747009 C44.59899451 0.15756722 50.22166177 1.07488528 56.51953125 6.59375 C57.05835938 7.24472656 57.5971875 7.89570313 58.15234375 8.56640625 C58.70664062 9.21480469 59.2609375 9.86320313 59.83203125 10.53125 C63.73870572 16.20120727 63.56323009 21.46280164 63.53804016 28.12910461 C63.54186571 29.19858453 63.54569126 30.26806445 63.54963273 31.36995286 C63.55996683 34.96063354 63.55596953 38.55115442 63.55200195 42.1418457 C63.55634864 44.71444853 63.56153164 47.28705006 63.56748962 49.85964966 C63.5802463 56.13088309 63.58202848 62.40207372 63.57968936 68.67331795 C63.5779043 73.78121671 63.57965992 78.88910252 63.5839138 83.99699974 C63.58450899 84.72486367 63.58510418 85.4527276 63.58571741 86.20264801 C63.58692925 87.68166779 63.58814339 89.16068757 63.58935978 90.63970735 C63.60024257 104.52043518 63.59807147 118.40113874 63.59197494 132.28186794 C63.58682562 144.9300595 63.59800714 157.57817357 63.61707316 170.22634981 C63.63654411 183.24437413 63.64469015 196.26236199 63.6409499 209.28040093 C63.63904917 216.57605703 63.64141239 223.87164753 63.65566444 231.16729164 C63.66897017 238.04804825 63.66619368 244.9286497 63.65325356 251.80940628 C63.65091108 254.31653205 63.65353731 256.82366894 63.66187668 259.33078194 C63.79020092 300.95898402 57.02348856 342.17432475 29.27734375 374.62890625 C28.40335938 375.65757812 28.40335938 375.65757812 27.51171875 376.70703125 C12.06609273 393.40078866 -10.61464901 401.89220392 -32.72265625 404.62890625 C-35.54532538 404.72588107 -38.34364626 404.78095499 -41.16584778 404.7828064 C-41.98965067 404.78718865 -42.81345356 404.7915709 -43.66222018 404.79608595 C-46.40868635 404.80938654 -49.15512051 404.81563291 -51.90161133 404.82177734 C-53.87654258 404.82968495 -55.85147241 404.8379543 -57.82640076 404.84655762 C-64.2983158 404.87269243 -70.77023704 404.88807257 -77.2421875 404.90234375 C-79.47418407 404.90770616 -81.70618061 404.91308367 -83.93817711 404.9184761 C-93.22279329 404.94008857 -102.50740779 404.95882537 -111.79204273 404.9700985 C-125.08064668 404.98634235 -138.36895854 405.01954976 -151.6574524 405.07649934 C-161.01223719 405.11522009 -170.36694389 405.13473349 -179.7218067 405.14001906 C-185.30458289 405.14366833 -190.8870469 405.15564589 -196.4697361 405.1881218 C-201.72214874 405.2182413 -206.97406088 405.22450024 -212.22654152 405.21273804 C-214.14937203 405.21251766 -216.07222606 405.22079297 -217.99497604 405.23839188 C-238.61057731 405.41675318 -238.61057731 405.41675318 -246.63840961 397.81477928 C-251.4480635 392.69659528 -252.967529 387.96934373 -253.01318359 380.94604492 C-253.01990082 380.29492233 -253.02661804 379.64379974 -253.03353882 378.97294617 C-253.05245976 376.83084374 -253.05644014 374.68905569 -253.05859375 372.546875 C-253.0650265 371.04860814 -253.07175521 369.55034252 -253.07876587 368.05207825 C-253.09072436 364.91416515 -253.09444824 361.77636201 -253.09326172 358.63842773 C-253.09305877 354.63372305 -253.12034165 350.62972991 -253.15480614 346.6251936 C-253.1771364 343.53063268 -253.18109738 340.43624125 -253.18004227 337.34160805 C-253.18238976 335.86612818 -253.19116496 334.39064303 -253.206707 332.91524315 C-253.29471227 323.6969577 -253.10518006 316.6300368 -246.7578125 309.38671875 C-245.78134766 308.57847656 -245.78134766 308.57847656 -244.78515625 307.75390625 C-244.13675781 307.19960938 -243.48835937 306.6453125 -242.8203125 306.07421875 C-238.35309903 302.99625044 -234.52339986 302.37822138 -229.14810181 302.37062073 C-228.50104479 302.36694502 -227.85398778 302.36326932 -227.18732297 302.35948223 C-225.02665642 302.3495304 -222.86624868 302.3536475 -220.70556641 302.35766602 C-219.15282926 302.35327697 -217.60009447 302.34797416 -216.04736328 302.34182739 C-212.7052733 302.3303342 -209.36324666 302.32486842 -206.02113724 302.323946 C-200.72378055 302.322001 -195.42655395 302.30392071 -190.12924194 302.28318787 C-176.96323218 302.23404353 -163.79718687 302.20320209 -150.63110352 302.18188477 C-140.41264212 302.16530907 -130.19429199 302.14232563 -119.97590482 302.09886402 C-114.72394023 302.07723112 -109.47218771 302.0690165 -104.2201817 302.07125676 C-100.93073832 302.06957395 -97.64142983 302.05542695 -94.35203552 302.03804398 C-92.84253814 302.03250761 -91.33301202 302.03189985 -89.82351303 302.03698158 C-72.71669044 302.08846868 -55.27203815 299.94612471 -42.16015625 287.81640625 C-33.47344496 278.18103912 -31.41009928 266.86295746 -31.46437073 254.29930115 C-31.46069502 253.29678552 -31.45701932 252.2942699 -31.45323223 251.26137501 C-31.44329964 247.92216284 -31.44739357 244.58311874 -31.45141602 241.24389648 C-31.44702634 238.84178491 -31.4417233 236.43967486 -31.43557739 234.03756714 C-31.42260264 228.20272183 -31.41837545 222.36791563 -31.41733737 216.53305726 C-31.41531165 209.73168936 -31.39951065 202.93037426 -31.38220083 196.12903059 C-31.35140367 183.99073338 -31.32721678 171.85243428 -31.30932617 159.71411133 C-31.30825349 158.98859871 -31.30718081 158.26308608 -31.30607563 157.51558823 C-31.2942525 149.41916661 -31.28404604 141.32274424 -31.27563477 133.22631836 C-31.2725606 130.28865558 -31.26947185 127.35099282 -31.26635742 124.41333008 C-31.26559208 123.6884039 -31.26482674 122.96347772 -31.26403821 122.21658408 C-31.25094794 110.12057642 -31.22629939 98.02462282 -31.19261402 85.92865521 C-31.17416863 79.1433031 -31.16174265 72.35803995 -31.16391182 65.57266045 C-31.1656618 59.19419739 -31.1539043 52.81590455 -31.13179398 46.43748093 C-31.12619463 44.09779453 -31.12570908 41.75808942 -31.13073158 39.41840172 C-31.13687252 36.22257064 -31.12464158 33.02730924 -31.10792542 29.83152771 C-31.11413723 28.90768719 -31.12034905 27.98384666 -31.1267491 27.03201097 C-31.05485915 19.48024428 -29.58950672 12.76081382 -24.26622009 7.00071716 C-16.86469002 0.42275813 -9.60063099 -0.10257825 0 0 Z M-14.72265625 22.62890625 C-15.4320834 25.96956924 -15.38383288 29.22822177 -15.3349762 32.63330078 C-15.34050961 33.63718684 -15.34604302 34.6410729 -15.35174412 35.67537975 C-15.36431982 39.0379105 -15.34133498 42.39925521 -15.31860352 45.76171875 C-15.3205074 48.17335784 -15.32466276 50.58499604 -15.3309021 52.99662781 C-15.33969825 58.19076808 -15.33351518 63.38466356 -15.31424141 68.57876587 C-15.28669821 76.10375464 -15.29060036 83.62848082 -15.30282723 91.15349829 C-15.32221831 103.38312144 -15.3222838 115.612658 -15.30737305 127.84228516 C-15.30648691 128.57390165 -15.30560078 129.30551814 -15.30468779 130.05930483 C-15.30105453 133.02290719 -15.29733718 135.98650944 -15.29352123 138.95011157 C-15.28307573 147.09092552 -15.27481863 155.23174055 -15.26831055 163.37255859 C-15.26772231 164.10085452 -15.26713408 164.82915044 -15.26652802 165.57951593 C-15.25722499 177.75454734 -15.26376386 189.9295271 -15.28062099 202.10454941 C-15.29017645 209.60272677 -15.28514894 217.10062494 -15.26085328 224.59877056 C-15.24313646 230.35722539 -15.24565416 236.11553487 -15.25529099 241.87400246 C-15.2558237 244.22569472 -15.24955133 246.57740053 -15.2357502 248.92905235 C-15.12346014 269.04980208 -17.21931117 285.1753242 -31.46484375 300.53125 C-46.40993509 314.41622241 -65.39701345 318.10946913 -85.08203125 317.98193359 C-86.68172836 317.98276644 -88.28142525 317.98498894 -89.88111877 317.98847961 C-93.29789366 317.99339142 -96.7144957 317.98940928 -100.1312561 317.97846603 C-105.5357358 317.96199085 -110.94000294 317.97062173 -116.34448242 317.98330688 C-130.72974428 318.01330887 -145.11496493 318.01191371 -159.50024223 317.99305403 C-168.97643745 317.98072673 -178.45238936 317.98255213 -187.92855644 318.01144183 C-193.3005645 318.02667121 -198.67191084 318.01920388 -204.0438776 317.99473166 C-207.379864 317.98466936 -210.71554574 317.99534052 -214.05149651 318.01184654 C-215.59746764 318.0153004 -217.14348526 318.01019156 -218.689394 317.99587822 C-220.80063532 317.97753914 -222.90957507 317.98992194 -225.02075195 318.00985718 C-226.2012764 318.0087261 -227.38180084 318.00759502 -228.59809875 318.00642967 C-232.66373938 318.8163895 -234.1601397 320.44009802 -236.72265625 323.62890625 C-237.47007284 326.50096915 -237.47007284 326.50096915 -237.36962891 329.625 C-237.39327011 331.40209351 -237.39327011 331.40209351 -237.41738892 333.21508789 C-237.40726776 334.48602295 -237.39714661 335.75695801 -237.38671875 337.06640625 C-237.39150238 338.37923584 -237.39628601 339.69206543 -237.4012146 341.04467773 C-237.40857111 343.81882252 -237.39792211 346.59216027 -237.37451172 349.36621094 C-237.34602197 352.91420223 -237.36243289 356.46030252 -237.39237404 360.00822449 C-237.4148333 363.40276821 -237.39908783 366.79680886 -237.38671875 370.19140625 C-237.3968399 371.46234131 -237.40696106 372.73327637 -237.41738892 374.04272461 C-237.40162811 375.22745361 -237.38586731 376.41218262 -237.36962891 377.6328125 C-237.36565094 378.67252197 -237.36167297 379.71223145 -237.35757446 380.78344727 C-236.47275892 384.74884985 -234.87779195 386.10427475 -231.72265625 388.62890625 C-228.90308636 389.11804948 -226.68990889 389.29872474 -223.8775177 389.25036621 C-223.0937366 389.25675503 -222.30995551 389.26314385 -221.50242347 389.26972628 C-218.87845459 389.28497476 -216.25599615 389.26451593 -213.63208008 389.24414062 C-211.74923706 389.24764225 -209.866397 389.25330129 -207.98356628 389.26095581 C-202.86691855 389.2752202 -197.75080732 389.258118 -192.63421082 389.23467064 C-187.26677807 389.21454708 -181.89936733 389.22044265 -176.53190613 389.22277832 C-167.50400985 389.2227247 -158.4763225 389.20295593 -149.44848633 389.17089844 C-139.04960965 389.13414893 -128.65100815 389.1252026 -118.25207502 389.13219595 C-108.22103375 389.13853445 -98.19008575 389.12767575 -88.15906334 389.10823059 C-83.90635524 389.10011044 -79.65369518 389.09733712 -75.40098 389.09892273 C-70.37021488 389.09981119 -65.33970523 389.08533081 -60.30900764 389.0596962 C-58.47664887 389.05261847 -56.64426274 389.05040944 -54.81189346 389.05381393 C-39.58182189 389.07668383 -23.85048148 388.37422411 -9.78515625 381.94140625 C-8.99431641 381.59182861 -8.20347656 381.24225098 -7.38867188 380.88208008 C15.41129707 370.4523568 28.88475451 350.88854665 37.61328125 328.1484375 C46.70043183 302.4565845 47.57839263 275.87675187 47.58374023 248.87255859 C47.59138405 246.38469704 47.59981524 243.8968378 47.60896301 241.40898132 C47.6306641 234.73045752 47.63969409 228.05199348 47.64478946 221.37344313 C47.64807442 217.19541558 47.65461194 213.01739698 47.66179085 208.83937454 C47.68129072 197.23879743 47.69774163 185.63822845 47.70066738 174.0376339 C47.70094874 172.93177381 47.70094874 172.93177381 47.70123577 171.80357311 C47.70160198 170.30966131 47.70196568 168.81574951 47.70232689 167.32183771 C47.7025097 166.58044572 47.70269251 165.83905373 47.70288086 165.07519531 C47.70306141 164.33288786 47.70324196 163.59058041 47.70342798 162.8257788 C47.70698589 150.74136842 47.7341379 138.65713434 47.77137875 126.5727853 C47.80943058 114.12493696 47.82882448 101.67717648 47.82912689 89.22926867 C47.82971103 82.25579807 47.83817999 75.28253985 47.86712456 68.30912399 C47.89414598 61.77040717 47.89557134 55.23203919 47.87946892 48.6932621 C47.87764725 46.29262308 47.88440934 43.89196026 47.90028763 41.49137306 C47.92060967 38.22049795 47.91027808 34.95112156 47.89207458 31.68026733 C47.91187454 30.2490319 47.91187454 30.2490319 47.93207449 28.78888261 C47.87380411 24.22110563 47.76447534 22.26108767 44.89778233 18.54079914 C41.96831084 16.40343337 40.59931103 15.99398912 37.015625 15.96606445 C35.99106201 15.94707596 34.96649902 15.92808746 33.91088867 15.90852356 C32.81494385 15.91550766 31.71899902 15.92249176 30.58984375 15.9296875 C29.45458252 15.9225322 28.31932129 15.91537689 27.1496582 15.90800476 C24.7524494 15.90022977 22.35516977 15.90523545 19.95800781 15.92211914 C16.28965787 15.94134172 12.62509659 15.90195634 8.95703125 15.85742188 C6.62629983 15.85713151 4.29556493 15.86027151 1.96484375 15.8671875 C0.86889893 15.85190506 -0.2270459 15.83662262 -1.35620117 15.82087708 C-2.38076416 15.83656235 -3.40532715 15.85224762 -4.4609375 15.8684082 C-5.35852783 15.87016556 -6.25611816 15.87192291 -7.1809082 15.87373352 C-10.92588637 16.98639509 -12.88159925 19.30446871 -14.72265625 22.62890625 Z " fill="#F1F1F1" transform="translate(488.72265625,163.37109375)"/>
<path d="M0 0 C3.84142733 3.15920663 7.48357994 6.48357994 11 10 C11.33 4.72 11.66 -0.56 12 -6 C20.25 -6 28.5 -6 37 -6 C37.0464859 15.54178545 37.08208489 37.08355864 37.10362434 58.62538433 C37.11389551 68.62974961 37.12787535 78.63408296 37.15087891 88.63842773 C37.17094117 97.36782044 37.18374658 106.09719001 37.18817699 114.82660514 C37.19076285 119.4400172 37.19675175 124.05336311 37.21146011 128.66675377 C37.41715086 195.83960892 37.41715086 195.83960892 18 216 C5.58253466 226.65213909 -11.72544595 232.33798424 -28 233 C-29.00804687 233.0515625 -30.01609375 233.103125 -31.0546875 233.15625 C-52.25956054 233.73325335 -71.80503662 227.929045 -88 214 C-90.92407226 211.16687866 -93.53271191 208.23599091 -96 205 C-96.45117188 204.40960938 -96.90234375 203.81921875 -97.3671875 203.2109375 C-99.24293978 200.58488431 -100 199.29509256 -100 196 C-96.23774923 193.96287451 -92.46395044 191.94816219 -88.6875 189.9375 C-87.0797168 189.06641602 -87.0797168 189.06641602 -85.43945312 188.17773438 C-84.41142578 187.63310547 -83.38339844 187.08847656 -82.32421875 186.52734375 C-81.37635498 186.01937256 -80.42849121 185.51140137 -79.4519043 184.98803711 C-77 184 -77 184 -74 185 C-72.640625 186.63671875 -72.640625 186.63671875 -71.25 188.6875 C-64.3136986 198.21426285 -55.53236159 202.81154778 -44 205 C-31.07980376 206.35673218 -17.70596224 205.05303075 -6.7734375 197.46484375 C3.03402508 189.36396607 6.39772882 179.31380576 8 167 C8.21179561 162.93150105 8.19291757 158.88494219 8.125 154.8125 C8.11597656 153.76513672 8.10695313 152.71777344 8.09765625 151.63867188 C8.07440075 149.09219486 8.04172569 146.54622969 8 144 C7.49936035 144.46180664 6.9987207 144.92361328 6.48291016 145.39941406 C-7.70761557 158.20002519 -24.29017508 161.89129517 -43.0234375 161.34765625 C-61.50088883 160.35435973 -77.4160532 152.20208623 -90.125 138.875 C-107.90590311 117.96896846 -112.81775844 89.8025141 -110.69140625 63.12890625 C-108.04069648 40.58614442 -99.72659335 18.89384285 -82 4 C-59.2372095 -12.96051057 -24.08766514 -16.92047643 0 0 Z M-67.25 28.125 C-76.85703721 39.74641597 -81.40557525 55.06507807 -82 70 C-82.0515625 70.78761719 -82.103125 71.57523438 -82.15625 72.38671875 C-82.76667279 88.9953055 -79.09552455 107.5189056 -69 121 C-68.34 121 -67.68 121 -67 121 C-66.7421875 121.598125 -66.484375 122.19625 -66.21875 122.8125 C-62.4526304 129.57220184 -54.02782649 132.76439451 -47 135 C-35.03867308 137.9084708 -21.47181216 136.31131862 -10.6875 130.375 C2.33851577 121.78967143 7.64143693 108.71840875 11 94 C14.11369456 74.21165167 13.53031655 50.75147083 2.3671875 33.47265625 C-4.50185843 24.21638583 -12.89142545 17.51407362 -24.39453125 15.31640625 C-40.50247427 13.36026924 -55.72986407 16.08122153 -67.25 28.125 Z " fill="#F1F1F1" transform="translate(1258,98)"/>
<path d="M0 0 C4.53374114 3.78497445 7.93475242 7.97299397 11 13 C11.66 12.34 12.32 11.68 13 11 C13.46019531 10.54496094 13.92039062 10.08992188 14.39453125 9.62109375 C15.53768769 8.4668117 16.65788652 7.28959926 17.76171875 6.09765625 C27.28185379 -3.96317612 39.97472068 -10.48230931 53.93359375 -11.203125 C71.66206018 -11.51266339 86.53911877 -8.87876102 99.74609375 3.6875 C112.18322219 16.44795067 115.34328019 31.82536881 115.22705078 49.17260742 C115.22734283 50.33488861 115.22763489 51.4971698 115.22793579 52.69467163 C115.22655353 56.49834927 115.21104452 60.30182575 115.1953125 64.10546875 C115.19157844 66.75775992 115.18863482 69.41004026 115.18673706 72.06233215 C115.1805506 78.30583491 115.16417866 84.54926662 115.14403808 90.79273826 C115.12159022 97.90772097 115.11066343 105.02270728 115.10064721 112.13771665 C115.07980951 126.75851421 115.04468938 141.37925611 115 156 C110.52084672 156.02886338 106.04171709 156.04675187 101.5625 156.0625 C100.28310547 156.07087891 99.00371094 156.07925781 97.68554688 156.08789062 C96.47060547 156.09111328 95.25566406 156.09433594 94.00390625 156.09765625 C92.31503296 156.10551147 92.31503296 156.10551147 90.59204102 156.11352539 C88 156 88 156 87 155 C86.9009226 153.54467357 86.87091987 152.0845784 86.86869812 150.62588501 C86.86268585 149.20884781 86.86268585 149.20884781 86.85655212 147.76318359 C86.8573452 146.19552246 86.8573452 146.19552246 86.8581543 144.59619141 C86.85467987 143.50180756 86.85120544 142.40742371 86.84762573 141.27987671 C86.84025102 138.89264056 86.83491483 136.50539747 86.83133507 134.11815262 C86.8241864 130.33443868 86.80852905 126.55085572 86.78999329 122.7671814 C86.73746797 112.00512126 86.68916572 101.24314116 86.67407227 90.48095703 C86.66475493 83.90499037 86.63455651 77.32931254 86.59275246 70.75345993 C86.5804706 68.25059848 86.57531602 65.74769115 86.57755089 63.24480057 C86.57991635 59.72876998 86.55763837 56.2136597 86.5300293 52.69775391 C86.53663071 51.67288879 86.54323212 50.64802368 86.55003357 49.59210205 C86.40780168 38.49330408 83.0733155 30.08752267 75.37890625 22.1015625 C67.80940523 15.41454846 59.65970068 14.52788088 49.8984375 14.7265625 C41.50176917 15.31550717 34.81070853 18.19049145 28.71875 24.0078125 C19.50226276 34.69055907 18.87538497 47.30692267 18.79467773 60.75219727 C18.78477814 61.78738998 18.77487854 62.8225827 18.76467896 63.8891449 C18.73330834 67.28154277 18.708404 70.6739546 18.68359375 74.06640625 C18.66300308 76.43009284 18.64200607 78.79377591 18.62062073 81.15745544 C18.56561825 87.35679267 18.51611334 93.55616192 18.46777344 99.7555542 C18.41739837 106.09032008 18.36179612 112.42503988 18.30664062 118.75976562 C18.19932625 131.17313905 18.09830619 143.58655196 18 156 C9.09 156 0.18 156 -9 156 C-9.0093457 152.67526611 -9.01869141 149.35053223 -9.02832031 145.92504883 C-9.0621811 134.90478724 -9.11778071 123.88471112 -9.18390274 112.86459827 C-9.22356842 106.18714636 -9.25553049 99.50983227 -9.27099609 92.83227539 C-9.2862085 86.38060681 -9.320736 79.92929717 -9.36830902 73.47778893 C-9.3830755 71.02403583 -9.39103828 68.57023148 -9.39188385 66.1164341 C-9.00159094 43.50647649 -9.00159094 43.50647649 -19.078125 23.87109375 C-25.95066222 17.18014796 -33.76031222 14.72586788 -43.3125 14.625 C-50.03782895 14.72458533 -55.12424547 15.75117952 -61 19 C-61.64453125 19.33902344 -62.2890625 19.67804688 -62.953125 20.02734375 C-70.57507292 24.68335976 -73.93102449 32.93308952 -76.35141945 41.17528915 C-77.43982457 45.91553267 -77.43924845 50.57129963 -77.43237305 55.41650391 C-77.4425647 56.51036407 -77.45275635 57.60422424 -77.46325684 58.73123169 C-77.49322485 62.31306183 -77.50262816 65.89462381 -77.51171875 69.4765625 C-77.5285774 71.97334674 -77.54672923 74.47012254 -77.56611633 76.96688843 C-77.61349332 83.51309577 -77.64338236 90.05926894 -77.66955566 96.60559082 C-77.69783236 103.29572571 -77.74593232 109.98574308 -77.79101562 116.67578125 C-77.87690884 129.78379006 -77.94488214 142.89182748 -78 156 C-82.47915328 156.02886338 -86.95828291 156.04675187 -91.4375 156.0625 C-92.71689453 156.07087891 -93.99628906 156.07925781 -95.31445312 156.08789062 C-96.52939453 156.09111328 -97.74433594 156.09433594 -98.99609375 156.09765625 C-100.68496704 156.10551147 -100.68496704 156.10551147 -102.40795898 156.11352539 C-105 156 -105 156 -106 155 C-106.09685318 152.91172679 -106.12186882 150.82011638 -106.12025452 148.729599 C-106.12110894 148.06720909 -106.12196337 147.40481918 -106.12284368 146.72235686 C-106.12450033 144.4866713 -106.11897414 142.25105958 -106.11352539 140.01538086 C-106.11324353 138.41919456 -106.11340123 136.82300813 -106.1139679 135.2268219 C-106.11425592 130.87990105 -106.10835835 126.53300756 -106.10139394 122.18609309 C-106.09516128 117.64836053 -106.09455667 113.11062741 -106.09336853 108.57289124 C-106.09025495 99.9739216 -106.08204122 91.37496461 -106.07201904 82.77600056 C-106.06085872 72.98898272 -106.05534766 63.20196429 -106.05032361 53.41494167 C-106.03985862 33.27662052 -106.02205828 13.1383115 -106 -7 C-97.75 -7 -89.5 -7 -81 -7 C-80.67 -2.05 -80.34 2.9 -80 8 C-78.88625 6.80375 -77.7725 5.6075 -76.625 4.375 C-56.56574239 -15.54349089 -22.44023703 -16.30771424 0 0 Z " fill="#F2F2F2" transform="translate(1432,99)"/>
<path d="M0 0 C8.91 0 17.82 0 27 0 C27.33 21.78 27.66 43.56 28 66 C31.63 63.36 35.26 60.72 39 58 C50.16771361 51.63864415 61.01084876 49.44220706 73.8125 49.5625 C75.51708374 49.57385986 75.51708374 49.57385986 77.25610352 49.58544922 C97.04783785 49.97216641 112.55486985 57.31372448 126.41015625 71.4609375 C144.84745779 92.52310358 148.23666348 120.03719024 147 147 C145.02448232 170.03002824 135.21629595 192.11646027 117.43359375 207.15625 C101.25265634 219.41532296 82.82413797 222.48146175 63 221 C47.20425647 218.80366668 36.01031038 211.01031038 25 200 C24.67 205.28 24.34 210.56 24 216 C16.08 216 8.16 216 0 216 C0 144.72 0 73.44 0 0 Z M36.75 89.3125 C24.05513654 105.19861367 22.82839068 127.20001147 24.2734375 146.6875 C26.26699794 163.2378131 31.63585232 177.43772273 44.703125 188.3125 C54.42053788 195.45182375 67.51346912 197.12344456 79.31640625 195.59765625 C91.71225244 192.83700928 101.53788318 186.34784676 108.4375 175.7109375 C119.82986696 155.94518082 120.62421314 131.7288877 115 110 C111.24987103 97.44462314 104.72159197 87.69309034 94 80 C74.41913896 70.03679718 51.72585097 73.15534781 36.75 89.3125 Z " fill="#F2F2F2" transform="translate(986,343)"/>
<path d="M0 0 C8.91 0 17.82 0 27 0 C27 71.28 27 142.56 27 216 C19.08 216 11.16 216 3 216 C2.67 210.39 2.34 204.78 2 199 C-1.39928374 202.39570383 -1.39928374 202.39570383 -4.78125 205.80859375 C-17.02538602 217.41269538 -33.63056937 220.53162359 -49.96459961 220.34716797 C-68.31031706 219.79051101 -84.26338374 213.31137331 -97 200 C-97.69351563 199.32582031 -98.38703125 198.65164062 -99.1015625 197.95703125 C-115.30986611 181.27937522 -120.42058232 156.71259379 -120.3125 134.25 C-120.30686035 133.01862305 -120.3012207 131.78724609 -120.29541016 130.51855469 C-119.98544794 107.22535471 -113.0938897 85.19183626 -96.99609375 67.8671875 C-80.73612879 52.65727899 -63.32466331 48.12224726 -41.62109375 48.6484375 C-25.28876509 49.41114326 -13.67310307 55.86151754 -1 66 C-0.67 44.22 -0.34 22.44 0 0 Z M-78.1171875 88.54296875 C-91.06800421 105.44351587 -92.79633948 127.70305673 -90.78173828 148.22314453 C-89.00015594 160.64412373 -84.6410684 172.78045003 -76 182 C-75.10667969 182.95519531 -75.10667969 182.95519531 -74.1953125 183.9296875 C-65.12244422 192.70138172 -53.50038291 195.35177007 -41.22265625 195.21484375 C-30.77446087 194.51829739 -22.57451794 190.7163453 -14 185 C-14 184.34 -14 183.68 -14 183 C-13.34 183 -12.68 183 -12 183 C1.09930519 168.38289119 3.54821719 147.55060754 2.92285156 128.67089844 C1.95279421 111.96750217 -2.26677127 95.13342238 -14.6875 83.125 C-33.45265696 67.87830997 -61.99539855 71.47475899 -78.1171875 88.54296875 Z " fill="#F2F2F2" transform="translate(1097,39)"/>
<path d="M0 0 C15.89079767 12.21821559 24.63188777 31.44293868 28.27978516 50.78466797 C29.47950022 60.3823885 29.27978516 70.11225588 29.27978516 79.78466797 C-11.64021484 79.78466797 -52.56021484 79.78466797 -94.72021484 79.78466797 C-90.46116381 103.4503419 -90.46116381 103.4503419 -76.07568359 121.91748047 C-63.79988448 130.12423848 -50.08775093 132.53246105 -35.49365234 130.28857422 C-23.05409481 127.4438692 -12.20991797 121.63647443 -4.75927734 110.97998047 C-3.33190429 108.61442794 -1.98212819 106.24180818 -0.72021484 103.78466797 C5.4613566 104.38671402 10.89812276 106.23148978 16.71728516 108.34716797 C17.63960937 108.67652344 18.56193359 109.00587891 19.51220703 109.34521484 C21.77024996 110.15249444 24.0259408 110.96575524 26.27978516 111.78466797 C21.19518992 128.14996984 8.36859116 141.12259485 -6.56982422 149.03588867 C-26.54990099 159.19180468 -50.05259292 161.0687156 -71.57373047 154.52539062 C-81.56234759 151.07845428 -90.8677044 145.86668156 -98.72021484 138.78466797 C-99.30673828 138.28966797 -99.89326172 137.79466797 -100.49755859 137.28466797 C-114.67079941 124.42912074 -122.96205872 103.28666333 -123.88134766 84.48999023 C-124.24560959 55.09278189 -121.35019482 28.43434633 -100.03271484 6.40966797 C-74.31089627 -18.88959859 -29.01000607 -20.4955734 0 0 Z M-81.97021484 25.97216797 C-89.01965218 34.89879258 -93.72021484 46.39901068 -93.72021484 57.78466797 C-62.70021484 57.78466797 -31.68021484 57.78466797 0.27978516 57.78466797 C-1.22039701 42.78284635 -5.1186326 30.3818336 -16.18115234 19.80029297 C-34.83923151 4.98864858 -66.15786035 9.22006114 -81.97021484 25.97216797 Z " fill="#F1F1F1" transform="translate(1689.72021484375,101.21533203125)"/>
<path d="M0 0 C1.97685791 0.01135986 1.97685791 0.01135986 3.99365234 0.02294922 C18.65375461 0.27087343 30.34940887 3.06493618 43.1875 10.4375 C44.58935547 11.20900391 44.58935547 11.20900391 46.01953125 11.99609375 C46.73496094 12.47175781 47.45039062 12.94742187 48.1875 13.4375 C48.1875 14.0975 48.1875 14.7575 48.1875 15.4375 C48.78691406 15.69660156 49.38632812 15.95570313 50.00390625 16.22265625 C57.51998646 20.40423218 61.45121086 30.92666925 63.90625 38.71875 C66.31499446 48.49541871 66.33790384 58.79347516 66.30102539 68.80566406 C66.30117142 69.87055557 66.30131744 70.93544708 66.3014679 72.03260803 C66.30077859 75.50613538 66.2930328 78.97960717 66.28515625 82.453125 C66.28328857 84.87978079 66.28186632 87.30643696 66.28086853 89.73309326 C66.27707088 96.0853176 66.2672644 102.43751867 66.25616455 108.78973389 C66.24589095 115.28560064 66.24135822 121.78147119 66.23632812 128.27734375 C66.2256394 140.99740764 66.2080652 153.71744824 66.1875 166.4375 C57.9375 166.4375 49.6875 166.4375 41.1875 166.4375 C40.6925 156.0425 40.6925 156.0425 40.1875 145.4375 C39.135625 146.736875 38.08375 148.03625 37 149.375 C26.92630422 160.65682861 13.11613419 168.07745856 -1.8125 170.4375 C-2.493125 170.54835938 -3.17375 170.65921875 -3.875 170.7734375 C-21.80815565 173.21287411 -40.76352126 171.52557914 -55.5625 160.36328125 C-61.03627706 155.69590885 -65.41459438 150.78733613 -68.8125 144.4375 C-69.225 143.68726563 -69.6375 142.93703125 -70.0625 142.1640625 C-72.92968369 135.85227618 -73.19378782 129.69939782 -73.25 122.875 C-73.26015137 122.00069336 -73.27030273 121.12638672 -73.28076172 120.22558594 C-73.12114679 108.23423334 -68.83625773 97.74804838 -60.8125 88.8125 C-36.36160207 66.31979086 7.848858 65.97123411 39.1875 62.4375 C36.2225481 45.81088597 36.2225481 45.81088597 26.30859375 32.75390625 C13.50330376 24.80660841 -1.93858917 25.24159011 -16.15234375 28.3359375 C-25.15927608 31.04666847 -32.15096249 36.25357884 -36.8125 44.4375 C-38.27967225 47.39024165 -39.60527234 50.36972149 -40.8125 53.4375 C-46.734678 52.80269395 -52.10077744 51.22657028 -57.75 49.375 C-58.62462891 49.09333984 -59.49925781 48.81167969 -60.40039062 48.52148438 C-62.53944327 47.83184445 -64.67668579 47.13709171 -66.8125 46.4375 C-65.4008886 33.54050497 -57.8202677 22.60349381 -48.2109375 14.1484375 C-33.99899806 3.21302589 -17.62169126 -0.14212861 0 0 Z M-39.14453125 105.453125 C-44.6181766 111.29465282 -46.29995036 116.91663997 -46.1328125 124.84375 C-45.36604472 131.05269888 -42.27969573 137.09103929 -37.8125 141.4375 C-27.06503839 149.29758387 -14.54726513 149.12422386 -1.8125 147.4375 C10.72788554 145.04885513 21.20685482 138.32229912 29.1875 128.4375 C37.66328116 115.52713292 38.71229008 101.4037357 38.1875 86.4375 C15.2620325 86.4375 -21.26206056 89.99691918 -39.14453125 105.453125 Z " fill="#F2F2F2" transform="translate(890.8125,392.5625)"/>
<path d="M0 0 C1.12015816 -0.00913666 1.12015816 -0.00913666 2.26294577 -0.01845789 C4.75476882 -0.03505108 7.24607881 -0.03031746 9.73794556 -0.0255127 C11.52878854 -0.03285519 13.3196268 -0.04144194 15.11045837 -0.05117798 C19.96796529 -0.07338407 24.82530252 -0.0763251 29.68285322 -0.07443047 C33.74095654 -0.07431072 37.79902397 -0.08287659 41.8571173 -0.09120798 C51.4328149 -0.11043892 61.00842534 -0.11332704 70.58413696 -0.10656738 C80.45560382 -0.09992705 90.32669698 -0.12279142 100.19808805 -0.15988111 C108.67981441 -0.1905906 117.16142064 -0.20193677 125.64320147 -0.1980443 C130.70612064 -0.19597805 135.76874902 -0.201437 140.83161545 -0.22593689 C145.59406261 -0.24822196 150.35590279 -0.24631154 155.11835289 -0.22600937 C156.86301458 -0.22260241 158.60771727 -0.22767491 160.35232353 -0.24199295 C177.41443042 -0.37232512 177.41443042 -0.37232512 183.38491821 5.39440918 C188.51142563 10.79073278 189.63368474 15.46615797 189.65234375 22.81330872 C189.65687486 23.55105929 189.66140598 24.28880987 189.6660744 25.04891652 C189.67871459 27.51611417 189.67709828 29.98309097 189.67544556 32.45031738 C189.68143107 34.22130619 189.68823667 35.99229238 189.69580078 37.76327515 C189.71346625 42.57122808 189.71815641 47.37910982 189.71943235 52.18709207 C189.72085427 55.19214572 189.72512466 58.19718129 189.73042679 61.20223045 C189.74892931 71.68939742 189.75709717 82.17651354 189.75552368 92.66369629 C189.75432242 102.43340608 189.77542119 112.2028949 189.80701101 121.97254878 C189.83317916 130.36507241 189.84389074 138.7575239 189.84261286 147.15008801 C189.84210336 152.16044869 189.84777996 157.17061301 189.86896896 162.180933 C189.88836023 166.89486306 189.88846972 171.60840963 189.8739357 176.32235336 C189.87184756 178.04927697 189.8765488 179.77622464 189.88865662 181.50310707 C189.99492797 197.71429309 189.99492797 197.71429309 185.38491821 204.39440918 C183.34976196 206.45300293 183.34976196 206.45300293 181.32241821 207.83190918 C180.65081665 208.30499512 179.97921509 208.77808105 179.28726196 209.26550293 C175.3356432 211.61050873 171.64974819 211.54276728 167.20652771 211.5415802 C166.47048598 211.54525689 165.73444426 211.54893358 164.97609824 211.55272168 C162.5027454 211.56375957 160.02943458 211.56760254 157.55606079 211.57141113 C155.78536851 211.57767574 154.01467755 211.58432254 152.24398804 211.59132385 C146.4224845 211.61236822 140.60098069 211.62272709 134.77944946 211.63269043 C132.77524998 211.63673795 130.77105063 211.64085487 128.76685143 211.64504051 C119.3503529 211.66409358 109.93386221 211.67832396 100.51734811 211.68665248 C89.64929883 211.69642356 78.7814533 211.72273927 67.91347581 211.76315337 C59.5125088 211.79332086 51.11160017 211.80812199 42.71058005 211.81143349 C37.69346975 211.81378341 32.67657709 211.82273619 27.65952492 211.84789467 C22.93743085 211.87119118 18.21569746 211.87540224 13.49356079 211.86513329 C11.76340726 211.86463819 10.03323588 211.87095098 8.30313683 211.88468933 C-9.37593694 212.01718404 -9.37593694 212.01718404 -16.67367554 205.57800293 C-17.1287146 205.00179199 -17.58375366 204.42558105 -18.05258179 203.83190918 C-18.52566772 203.25312012 -18.99875366 202.67433105 -19.48617554 202.07800293 C-22.01359708 198.30873412 -21.76091212 194.47485897 -21.75552368 190.12663269 C-21.7584948 189.38101273 -21.76146593 188.63539277 -21.76452708 187.86717826 C-21.77321866 185.36151413 -21.77472272 182.85589775 -21.7762146 180.35021973 C-21.78084244 178.55657855 -21.78586706 176.76293836 -21.79125977 174.96929932 C-21.80438888 170.09113088 -21.81082971 165.2129762 -21.81527042 160.33479285 C-21.81820028 157.28789379 -21.82230492 154.2409985 -21.8267746 151.19410133 C-21.84045078 141.66334223 -21.85011689 132.13259174 -21.85397649 122.60182351 C-21.8584579 111.59569082 -21.87600915 100.58968228 -21.90497708 89.58358735 C-21.92658487 81.07904228 -21.93668028 72.57453217 -21.93801761 64.06995994 C-21.93906627 58.98924065 -21.9449871 53.90863804 -21.96283722 48.82794762 C-21.9793023 44.04844938 -21.981481 39.26915575 -21.97269821 34.48963928 C-21.971927 32.73607651 -21.97628158 30.98250281 -21.98615646 29.22896767 C-21.99885475 26.83344666 -21.99301103 24.4386526 -21.98257446 22.0431366 C-21.99063087 21.35061647 -21.99868727 20.65809634 -22.00698781 19.94459075 C-21.94651644 14.00231178 -20.13547922 10.16135754 -16.30258179 5.70690918 C-11.16457222 1.28583118 -6.67992962 -0.05164661 0 0 Z M-5.61508179 18.39440918 C-5.92121997 21.49806375 -5.92121997 21.49806375 -5.86904907 25.22044373 C-5.87216905 25.93057399 -5.87528903 26.64070425 -5.87850356 27.37235361 C-5.88651278 29.76382186 -5.88014865 32.15503842 -5.87387085 34.54650879 C-5.87657944 36.25620167 -5.88013963 37.96589339 -5.88449097 39.67558289 C-5.89363361 44.32843899 -5.89006284 48.98120672 -5.8837328 53.63406444 C-5.87868166 58.49604076 -5.88336185 63.35800935 -5.88650513 68.21998596 C-5.89014771 76.387109 -5.88533838 84.55419592 -5.87582397 92.72131348 C-5.8649425 102.17119237 -5.86846159 111.62098496 -5.87947679 121.07086176 C-5.88854568 129.17449876 -5.88983678 137.27810973 -5.88459945 145.38175017 C-5.88147709 150.22593416 -5.88107761 155.07007755 -5.88767242 159.91425896 C-5.89343935 164.46882108 -5.88946098 169.02327169 -5.87788391 173.57782173 C-5.87523367 175.25200846 -5.8760086 176.92620453 -5.88040924 178.60038757 C-5.88585192 180.88084983 -5.8790463 183.16095186 -5.86904907 185.44139099 C-5.86829502 186.71916381 -5.86754097 187.99693663 -5.86676407 189.31342983 C-5.85194118 192.5646612 -5.85194118 192.5646612 -3.61508179 195.39440918 C-0.5165206 195.85324737 -0.5165206 195.85324737 3.21095276 195.77536011 C4.27614815 195.78238007 4.27614815 195.78238007 5.36286265 195.78954184 C7.75443487 195.80155619 10.14544084 195.79200989 12.53701782 195.78259277 C14.24671261 195.78665567 15.95640477 195.79199595 17.66609192 195.79852295 C22.31898418 195.81223702 26.97167759 195.80688083 31.62457347 195.79738569 C36.48655291 195.78980899 41.34851492 195.79682927 46.210495 195.80154419 C54.37763537 195.80700808 62.54469447 195.79979409 70.71182251 195.78552246 C80.16173825 195.76920019 89.61145978 195.77447883 99.06137079 195.79100168 C107.1650172 195.80460504 115.26860506 195.80654168 123.3722592 195.79868567 C128.21646119 195.79400211 133.06057183 195.79340288 137.90476799 195.80329514 C142.4593816 195.81194563 147.01374432 195.80597811 151.56833076 195.78861237 C153.24251514 195.78463701 154.91672053 195.78579943 156.59089661 195.79240036 C158.87151855 195.80056496 161.1513301 195.7903568 163.43190002 195.77536011 C164.70967284 195.77422903 165.98744566 195.77309795 167.30393887 195.7719326 C170.29936367 195.60598309 170.29936367 195.60598309 172.29609299 194.30516338 C173.97593996 191.35723878 173.75958302 188.81596496 173.75914001 185.44139099 C173.76311442 184.72970074 173.76708883 184.01801048 173.77118367 183.28475386 C173.78082777 180.89393926 173.76897628 178.50371328 173.75723267 176.11291504 C173.75965992 174.4014514 173.76337859 172.68998918 173.76829529 170.97853088 C173.77771633 166.32575464 173.76826908 161.6731883 173.75496316 157.02042842 C173.74366599 152.15799211 173.74775478 147.29556639 173.74971008 142.43312073 C173.75059352 134.26775676 173.73950149 126.10247573 173.72109985 117.93713379 C173.69992439 108.48664137 173.69642355 99.03627044 173.70266181 89.5857591 C173.70834915 80.50616212 173.70271772 71.42660808 173.69148827 62.34701729 C173.68683463 58.47742484 173.68597171 54.60785858 173.68807411 50.73826408 C173.68995268 46.1853237 173.6818865 41.63250761 173.66601372 37.07959557 C173.66175807 35.40499129 173.66092886 33.73037444 173.66370392 32.05576706 C173.66690797 29.77718787 173.65788936 27.49898427 173.64561462 25.22044373 C173.64356175 23.94304793 173.64150888 22.66565214 173.63939381 21.34954739 C173.69402914 18.2742981 173.69402914 18.2742981 171.38491821 16.39440918 C168.26151706 16.08823794 168.26151706 16.08823794 164.51419067 16.14044189 C163.4418116 16.13576192 163.4418116 16.13576192 162.34776831 16.13098741 C159.9401471 16.12297807 157.53277589 16.12934234 155.12515259 16.13562012 C153.4039851 16.13291155 151.68281878 16.12935138 149.96165466 16.125 C145.27787514 16.11585769 140.59418342 16.11942781 135.9104023 16.12575817 C131.01726157 16.13080866 126.12412856 16.12612938 121.23098755 16.12298584 C113.01258998 16.11934341 104.79422831 16.12415254 96.57583618 16.13366699 C87.06345349 16.14455207 77.55115653 16.14102669 68.03877592 16.13001418 C59.88335036 16.12094918 51.72795066 16.11965217 43.57252169 16.12489152 C38.69651159 16.12801556 33.82054183 16.1284087 28.9445343 16.12181854 C24.36124836 16.11605712 19.77807334 16.12001979 15.19479942 16.13160706 C13.50890475 16.13426011 11.82300079 16.13347761 10.13710976 16.12908173 C7.84316077 16.12365013 5.54957156 16.13043097 3.25564575 16.14044189 C1.9695768 16.14119595 0.68350784 16.14195 -0.6415329 16.1427269 C-3.73311764 16.08247776 -3.73311764 16.08247776 -5.61508179 18.39440918 Z " fill="#F1F1F1" transform="translate(21.615081787109375,357.6055908203125)"/>
<path d="M0 0 C1.9790332 0.01244751 1.9790332 0.01244751 3.99804688 0.02514648 C23.10520709 0.35624614 41.24370456 5.61842544 55.1875 19.4375 C61.15624762 26.54479485 65.99757549 34.3450607 66.7890625 43.71875 C66.90628662 45.0500293 66.90628662 45.0500293 67.02587891 46.40820312 C67.07921387 47.07787109 67.13254883 47.74753906 67.1875 48.4375 C63.83543462 49.11503075 60.48056425 49.7775352 57.125 50.4375 C56.18205078 50.62828125 55.23910156 50.8190625 54.26757812 51.015625 C49.14080295 52.01597138 44.41062681 52.669317 39.1875 52.4375 C38.97996094 51.73625 38.77242187 51.035 38.55859375 50.3125 C35.43256441 40.68589918 31.44482973 34.90452311 22.4375 30.0625 C9.80738684 24.29589747 -4.70147383 23.60823857 -18.046875 27.390625 C-23.49906092 29.45444679 -27.99460742 32.33556171 -31.8125 36.75 C-33.83122267 42.17531717 -34.33638091 46.66212581 -32.6875 52.25 C-25.46712361 64.52463986 -5.4764354 66.99088211 7.14404297 70.57324219 C53.52327462 83.74366414 53.52327462 83.74366414 63.1875 98.4375 C69.11965699 110.30181399 70.26951995 124.11685791 66.2265625 136.8125 C61.17117768 149.58399849 54.21133722 157.03471362 42.1875 163.4375 C41.47851562 163.8190625 40.76953125 164.200625 40.0390625 164.59375 C30.24936404 169.3976169 18.98488854 170.90918741 8.1875 171.4375 C7.42695312 171.47875 6.66640625 171.52 5.8828125 171.5625 C-12.86439589 172.06747531 -31.22053553 168.06402348 -46.8125 157.4375 C-47.46476562 157.00050781 -48.11703125 156.56351563 -48.7890625 156.11328125 C-57.7065161 149.33357338 -64.90787294 137.41331694 -66.8125 126.4375 C-66.4825 124.7875 -66.1525 123.1375 -65.8125 121.4375 C-57.2325 120.1175 -48.6525 118.7975 -39.8125 117.4375 C-38.678125 119.520625 -37.54375 121.60375 -36.375 123.75 C-36.01865479 124.40137939 -35.66230957 125.05275879 -35.29516602 125.72387695 C-33.91307905 128.27660778 -32.73254897 130.67735309 -31.8125 133.4375 C-29.95232332 134.49287095 -29.95232332 134.49287095 -27.8125 135.4375 C-26.55899963 136.39125028 -25.30928224 137.34998411 -24.0625 138.3125 C-12.57530024 145.98316694 3.03820466 147.06439075 16.35546875 144.9296875 C25.08971754 142.83346779 32.09760456 138.92264035 37.1875 131.4375 C40.0704025 124.62336681 39.60973382 117.95922184 36.875 111.1875 C26.25556177 100.32109809 7.10282726 97.62502424 -7.00390625 93.71875 C-48.24248141 82.21061524 -48.24248141 82.21061524 -58.69140625 65.80859375 C-63.41057055 55.82764346 -63.70607779 41.87106582 -60.3125 31.375 C-54.64042584 18.60789231 -43.55300087 9.79232141 -30.82763672 4.54980469 C-20.69603972 0.81218882 -10.72981687 -0.08721753 0 0 Z " fill="#F2F2F2" transform="translate(1211.8125,392.5625)"/>
<path d="M0 0 C9.24 0 18.48 0 28 0 C28.01458252 2.76375 28.02916504 5.5275 28.04418945 8.375 C28.09479599 17.56318894 28.16143507 26.75121302 28.23571491 35.9392395 C28.28021567 41.50342324 28.31951517 47.06753717 28.34643555 52.63183594 C28.37267267 58.01365631 28.41321534 63.39520502 28.46318626 68.77685547 C28.47971822 70.8178364 28.49131674 72.85886417 28.49761391 74.89990234 C28.56180701 93.81444506 29.28203688 113.75510878 41.9765625 129.02734375 C50.9570937 137.78249482 61.86171956 139.88151353 74 140 C84.41409826 139.15669898 94.45562684 135.39040636 102 128 C111.56102786 116.13652053 114.10838508 102.15378605 114.20532227 87.30102539 C114.21522186 86.35390686 114.22512146 85.40678833 114.23532104 84.43096924 C114.26675086 81.31988979 114.29161982 78.20879511 114.31640625 75.09765625 C114.33699179 72.93289304 114.35798867 70.7681337 114.37937927 68.6033783 C114.43443473 62.92022856 114.48391658 57.23704355 114.53222656 51.55383301 C114.58256261 45.74874756 114.63818536 39.943713 114.69335938 34.13867188 C114.80073869 22.75915655 114.90173932 11.37959772 115 0 C124.24 0 133.48 0 143 0 C143 53.79 143 107.58 143 163 C134.75 163 126.5 163 118 163 C117.505 154.09 117.505 154.09 117 145 C115.948125 146.155 114.89625 147.31 113.8125 148.5 C102.61219602 159.58261252 86.85317689 166.58571837 71 167 C70.05382812 167.05027344 69.10765625 167.10054687 68.1328125 167.15234375 C51.16620791 167.67088301 35.69754819 163.88101768 22.5625 152.6875 C7.81219619 138.32282505 0.6700426 117.93128935 -0.09025764 97.58457756 C-0.1218694 94.98871348 -0.1238647 92.39461962 -0.11352539 89.79858398 C-0.11367142 88.82191269 -0.11381744 87.84524139 -0.1139679 86.838974 C-0.11327653 83.6413239 -0.10552075 80.44373355 -0.09765625 77.24609375 C-0.09578931 75.01693249 -0.09436671 72.78777082 -0.09336853 70.55860901 C-0.08956508 64.71433361 -0.07975348 58.87008338 -0.06866455 53.02581787 C-0.05840359 47.05302267 -0.0538609 41.08022337 -0.04882812 35.10742188 C-0.03812914 23.40493513 -0.02055007 11.7024736 0 0 Z " fill="#F2F2F2" transform="translate(811,92)"/>
<path d="M0 0 C14.72739053 12.50528025 21.24525096 30.67187351 23.8125 49.375 C24.45846688 57.60047573 24.28193917 65.85816456 24.203125 74.1015625 C24.19564524 76.42995716 24.18996054 78.75835821 24.18597412 81.08676147 C24.17085432 87.1530154 24.13169329 93.2188734 24.0871582 99.28497314 C24.04590762 105.49982348 24.02790008 111.71473911 24.0078125 117.9296875 C23.96518321 130.07832508 23.89494825 142.22656736 23.8125 154.375 C14.9025 154.375 5.9925 154.375 -3.1875 154.375 C-3.20208252 151.81919189 -3.21666504 149.26338379 -3.23168945 146.63012695 C-3.28246373 138.10054569 -3.34912806 129.57113887 -3.42321491 121.04172993 C-3.46757677 115.88013133 -3.50690381 110.71860552 -3.53393555 105.55688477 C-3.56031515 100.55758098 -3.60094939 95.55856267 -3.65068626 90.55943871 C-3.66712455 88.67051994 -3.67877978 86.78155208 -3.68511391 84.8925724 C-3.76503867 63.20888885 -4.08172018 40.31461902 -19.7734375 23.6953125 C-27.89514982 16.03116144 -38.3494671 14.02762596 -49.1875 14.16015625 C-60.3803112 14.96172476 -70.82483966 18.95217731 -78.55859375 27.2421875 C-88.64723074 40.45176975 -90.27943251 56.80795887 -90.39282227 72.86376953 C-90.40767166 74.19732231 -90.40767166 74.19732231 -90.42282104 75.55781555 C-90.45407531 78.45778868 -90.47904868 81.35777811 -90.50390625 84.2578125 C-90.52450705 86.28376662 -90.54550428 88.30971674 -90.56687927 90.33566284 C-90.62177741 95.63900494 -90.67132743 100.94238372 -90.71972656 106.24578857 C-90.77017881 111.66910016 -90.8257404 117.0923592 -90.88085938 122.515625 C-90.98804572 133.13537323 -91.08910376 143.75516669 -91.1875 154.375 C-100.0975 154.375 -109.0075 154.375 -118.1875 154.375 C-118.1875 100.585 -118.1875 46.795 -118.1875 -8.625 C-110.2675 -8.625 -102.3475 -8.625 -94.1875 -8.625 C-93.8575 -2.355 -93.5275 3.915 -93.1875 10.375 C-90.2175 6.91 -90.2175 6.91 -87.1875 3.375 C-62.95358509 -17.02839288 -25.51758689 -18.8830143 0 0 Z " fill="#F2F2F2" transform="translate(1856.1875,100.625)"/>
<path d="M0 0 C1.29500427 -0.00846954 2.59000854 -0.01693909 3.92425537 -0.02566528 C7.46570432 -0.04782925 11.00692024 -0.05081454 14.54842901 -0.04891777 C17.51050814 -0.04879782 20.47253834 -0.05737189 23.43460381 -0.06569529 C30.42616251 -0.08491122 37.41760182 -0.08781993 44.40917969 -0.08105469 C51.6086551 -0.07441614 58.80761789 -0.09727442 66.00698936 -0.13436842 C72.19999536 -0.16511295 78.39283685 -0.1764203 84.58591759 -0.1725316 C88.27954126 -0.17046885 91.97276597 -0.17586907 95.66631699 -0.20042419 C99.78830389 -0.22692378 103.90921551 -0.21292749 108.03125 -0.1953125 C109.24606049 -0.20857574 110.46087097 -0.22183899 111.7124939 -0.23550415 C118.83010156 -0.16489145 123.66852184 0.70227863 129.14501953 5.41992188 C135.79588883 12.24581405 135.43868583 19.82288598 135.41967773 28.81591797 C135.42478867 30.06215439 135.4298996 31.30839081 135.43516541 32.59239197 C135.44666274 35.99957042 135.44913831 39.40650514 135.44660211 42.81368589 C135.44552966 45.6639134 135.45042281 48.51411866 135.45520753 51.36434138 C135.46628981 58.09219515 135.46674752 64.81999309 135.46069336 71.54785156 C135.45465582 78.47454289 135.46696182 85.40103097 135.48826343 92.32768762 C135.50591261 98.2871331 135.51187552 104.24651408 135.50862569 110.20598471 C135.50681774 113.75977904 135.50939975 117.31342842 135.52334023 120.86719894 C135.53831676 124.83325847 135.52891943 128.7990617 135.51733398 132.76513672 C135.52497772 133.93319351 135.53262146 135.10125031 135.54049683 136.30470276 C135.49373123 143.55692902 135.08111752 149.82648852 130.31298828 155.66210938 C129.65943359 156.2009375 129.00587891 156.73976563 128.33251953 157.29492188 C127.36378906 158.12636719 127.36378906 158.12636719 126.37548828 158.97460938 C119.92670314 163.1533318 113.17954034 162.71619055 105.76489258 162.71044922 C104.52026245 162.71716644 103.27563232 162.72388367 101.99328613 162.73080444 C98.5901782 162.74651901 95.18731439 162.75315782 91.78418708 162.75443602 C89.65435547 162.75586097 87.52454919 162.76013709 85.39472389 162.76543045 C77.95380666 162.78391568 70.51296092 162.79210304 63.07202148 162.79052734 C56.15325146 162.78932664 49.23479373 162.81041869 42.31610268 162.84201467 C36.36173537 162.86823067 30.40746972 162.87889241 24.45304519 162.87761652 C20.90307578 162.87710841 17.35338406 162.88270733 13.80347252 162.90397263 C9.83996947 162.92706876 5.87688931 162.91780154 1.91333008 162.90576172 C0.74886856 162.91700073 -0.41559296 162.92823975 -1.61534119 162.93981934 C-8.95437263 162.8832906 -15.80560443 162.1229457 -21.43767262 156.97260094 C-25.39482911 152.43749729 -27.10311938 148.86653156 -27.11567688 142.89212036 C-27.12276169 141.76779602 -27.1298465 140.64347168 -27.137146 139.4850769 C-27.13466858 138.25588531 -27.13219116 137.02669373 -27.12963867 135.76025391 C-27.1347496 134.4623291 -27.13986053 133.1644043 -27.14512634 131.82714844 C-27.1585141 128.26921602 -27.15909519 124.71138984 -27.15656304 121.15343714 C-27.15549299 118.18134071 -27.16037767 115.20926574 -27.16516846 112.23717391 C-27.17626327 105.22369205 -27.17670148 98.21026374 -27.1706543 91.19677734 C-27.16461614 83.96675941 -27.17692147 76.73693617 -27.19822437 69.50695145 C-27.2158522 63.29535086 -27.22183979 57.08381217 -27.21858662 50.8721875 C-27.21677521 47.16416944 -27.21939553 43.4562902 -27.23330116 39.74829483 C-27.24823414 35.61152809 -27.23889908 31.4751563 -27.22729492 27.33837891 C-27.23493866 26.11323578 -27.2425824 24.88809265 -27.25045776 23.62582397 C-27.20416278 16.16797745 -26.53222229 11.53131102 -21.54248047 5.73242188 C-14.71480913 -0.14255114 -8.66128534 -0.02082504 0 0 Z M-10.85498047 18.41992188 C-11.15919346 20.70504299 -11.15919346 20.70504299 -11.10894775 23.39245605 C-11.1145874 24.44408432 -11.12022705 25.49571259 -11.1260376 26.57920837 C-11.12198914 27.73771805 -11.11794067 28.89622772 -11.11376953 30.08984375 C-11.11727417 31.30611954 -11.12077881 32.52239532 -11.12438965 33.77552795 C-11.1316987 37.11643317 -11.12996466 40.45709163 -11.12363148 43.79798317 C-11.11857756 47.28976404 -11.12326123 50.78153416 -11.12640381 54.27331543 C-11.13004524 60.13779601 -11.12523974 66.00222627 -11.11572266 71.86669922 C-11.10483774 78.65251495 -11.10836319 85.43821052 -11.11937547 92.22402334 C-11.12844333 98.04401477 -11.12973609 103.86396996 -11.12449813 109.68396616 C-11.12137566 113.16269813 -11.12097664 116.64137356 -11.12757111 120.12010193 C-11.13440626 123.99678236 -11.12493997 127.87332754 -11.11376953 131.75 C-11.11781799 132.90850967 -11.12186646 134.06701935 -11.1260376 135.26063538 C-11.12039795 136.31226364 -11.1147583 137.36389191 -11.10894775 138.4473877 C-11.1081937 139.36473946 -11.10743965 140.28209122 -11.10666275 141.22724152 C-11.06133082 143.62814476 -11.06133082 143.62814476 -8.85498047 145.41992188 C-6.54997751 145.72134355 -6.54997751 145.72134355 -3.8377533 145.66716003 C-2.24552193 145.67345177 -2.24552193 145.67345177 -0.62112427 145.67987061 C0.54830719 145.6742511 1.71773865 145.66863159 2.92260742 145.6628418 C4.15024307 145.66474014 5.37787872 145.66663849 6.64271545 145.66859436 C10.01454833 145.67167037 13.38613742 145.66577909 16.75794148 145.65564132 C20.28088185 145.64687345 23.80381792 145.648618 27.32676697 145.64900208 C33.24252539 145.64806496 39.15823257 145.63937403 45.07397461 145.62573242 C51.92226642 145.60999914 58.77050213 145.60473454 65.61881071 145.60546798 C72.19691059 145.60607743 78.77499211 145.60098002 85.35308647 145.59267616 C88.15730368 145.58913746 90.96151439 145.58731208 93.76573372 145.58678246 C97.67611821 145.58559531 101.5864556 145.57589898 105.49682617 145.56518555 C107.2540097 145.56586533 107.2540097 145.56586533 109.04669189 145.56655884 C110.10535965 145.56229385 111.1640274 145.55802887 112.254776 145.55363464 C113.1804239 145.5519588 114.1060718 145.55028296 115.05976963 145.54855633 C117.1340584 145.65162571 117.1340584 145.65162571 118.14501953 144.41992188 C118.24542236 142.79232534 118.27578001 141.16036608 118.2787323 139.52967834 C118.28299728 138.47101059 118.28726227 137.41234283 118.29165649 136.32159424 C118.29120331 135.15013855 118.29075012 133.97868286 118.2902832 132.77172852 C118.29364182 131.54584518 118.29700043 130.31996185 118.30046082 129.05693054 C118.30835671 125.68504333 118.31163976 122.31321768 118.3122766 118.94132543 C118.31322408 116.13055477 118.31690052 113.31979007 118.3204487 110.5090217 C118.32860087 103.87979071 118.33103224 97.25057331 118.33032227 90.62133789 C118.32972129 83.7736351 118.34027528 76.92601105 118.35606593 70.07832819 C118.36912378 64.20740863 118.3745069 58.33651486 118.37386686 52.46558088 C118.37361135 48.95552681 118.37649151 45.44554267 118.38704491 41.93550301 C118.39848704 38.02280703 118.39398985 34.11021978 118.38793945 30.19750977 C118.39355896 29.02807831 118.39917847 27.85864685 118.40496826 26.65377808 C118.40077377 25.5922905 118.39657928 24.53080292 118.39225769 23.43714905 C118.39280246 22.51112412 118.39334723 21.5850992 118.3939085 20.63101292 C118.35451466 18.213701 118.35451466 18.213701 116.14501953 16.41992188 C113.85989842 16.11570888 113.85989842 16.11570888 111.17248535 16.16595459 C110.12085709 16.16031494 109.06922882 16.15467529 107.98573303 16.14886475 C106.82722336 16.15291321 105.66871368 16.15696167 104.47509766 16.16113281 C103.25882187 16.15762817 102.04254608 16.15412354 100.78941345 16.1505127 C97.44850824 16.14320365 94.10784978 16.14493769 90.76695824 16.15127087 C87.27517737 16.15632478 83.78340724 16.15164111 80.29162598 16.14849854 C74.42714539 16.14485711 68.56271514 16.1496626 62.69824219 16.15917969 C55.91242645 16.1700646 49.12673089 16.16653915 42.34091806 16.15552688 C36.52092664 16.14645901 30.70097145 16.14516626 24.88097525 16.15040421 C21.40224328 16.15352669 17.92356784 16.15392571 14.44483948 16.14733124 C10.56815904 16.14049608 6.69161386 16.14996237 2.81494141 16.16113281 C1.65643173 16.15708435 0.49792206 16.15303589 -0.69569397 16.14886475 C-1.74732224 16.15450439 -2.7989505 16.16014404 -3.88244629 16.16595459 C-5.25847393 16.16708567 -5.25847393 16.16708567 -6.66230011 16.16823959 C-9.06320336 16.21357153 -9.06320336 16.21357153 -10.85498047 18.41992188 Z " fill="#F0F1F1" transform="translate(262.85498046875,163.580078125)"/>
<path d="M0 0 C0.67194397 -0.0065712 1.34388794 -0.0131424 2.03619385 -0.01991272 C4.25883096 -0.03961403 6.48140054 -0.05130213 8.70410156 -0.0612793 C9.46489265 -0.06535482 10.22568375 -0.06943035 11.00952911 -0.07362938 C15.03759997 -0.09447818 19.06563689 -0.10878414 23.09375 -0.11816406 C27.24429036 -0.12921676 31.39429287 -0.16360633 35.5446434 -0.20333576 C38.74465905 -0.22954327 41.94454743 -0.2378596 45.14466095 -0.24144554 C46.67400997 -0.24630207 48.20335366 -0.25788946 49.73259735 -0.27648354 C64.59135974 -0.44589918 64.59135974 -0.44589918 70.34472656 4.17700195 C74.79604087 8.97973581 75.46963892 12.39916999 75.52172852 18.83227539 C75.52829971 19.50421936 75.53487091 20.17616333 75.54164124 20.86846924 C75.56134254 23.09110635 75.57303065 25.31367593 75.58300781 27.53637695 C75.58708334 28.29716805 75.59115887 29.05795914 75.59535789 29.8418045 C75.61620669 33.86987536 75.63051266 37.89791228 75.63989258 41.92602539 C75.65094527 46.07656575 75.68533484 50.22656826 75.72506428 54.37691879 C75.75127179 57.57693444 75.75958812 60.77682282 75.76317406 63.97693634 C75.76803059 65.50628536 75.77961797 67.03562905 75.79821205 68.56487274 C75.96762769 83.42363513 75.96762769 83.42363513 71.34472656 89.17700195 C66.54199271 93.62831626 63.12255853 94.30191431 56.68945312 94.35400391 C56.01750916 94.3605751 55.34556519 94.3671463 54.65325928 94.37391663 C52.43062217 94.39361794 50.20805259 94.40530604 47.98535156 94.4152832 C46.84416492 94.42139649 46.84416492 94.42139649 45.67992401 94.42763329 C41.65185316 94.44848209 37.62381624 94.46278805 33.59570312 94.47216797 C29.44516277 94.48322066 25.29516026 94.51761023 21.14480972 94.55733967 C17.94479407 94.58354718 14.74490569 94.59186351 11.54479218 94.59544945 C10.01544316 94.60030598 8.48609947 94.61189336 6.95685577 94.63048744 C-7.90190661 94.79990308 -7.90190661 94.79990308 -13.65527344 90.17700195 C-18.10658774 85.3742681 -18.78018579 81.95483392 -18.83227539 75.52172852 C-18.83884659 74.84978455 -18.84541779 74.17784058 -18.85218811 73.48553467 C-18.87188942 71.26289756 -18.88357752 69.04032798 -18.89355469 66.81762695 C-18.89763021 66.05683586 -18.90170574 65.29604477 -18.90590477 64.5121994 C-18.92675357 60.48412855 -18.94105953 56.45609163 -18.95043945 52.42797852 C-18.96149215 48.27743816 -18.99588172 44.12743565 -19.03561115 39.97708511 C-19.06181866 36.77706946 -19.07013499 33.57718108 -19.07372093 30.37706757 C-19.07857746 28.84771855 -19.09016485 27.31837486 -19.10875893 25.78913116 C-19.27817457 10.93036878 -19.27817457 10.93036878 -14.65527344 5.17700195 C-9.85253958 0.72568765 -6.4331054 0.0520896 0 0 Z " fill="#F1F1F1" transform="translate(474.6552734375,35.822998046875)"/>
<path d="M0 0 C4.434375 -0.020625 8.86875 -0.04125 13.4375 -0.0625 C14.83798584 -0.071604 16.23847168 -0.08070801 17.68139648 -0.09008789 C19.32217163 -0.09383423 19.32217163 -0.09383423 20.99609375 -0.09765625 C22.12200928 -0.10289307 23.2479248 -0.10812988 24.40795898 -0.11352539 C27 0 27 0 28 1 C28.0927833 2.38160115 28.11747043 3.76788038 28.11352539 5.15258789 C28.11340454 6.04578735 28.11328369 6.93898682 28.11315918 7.85925293 C28.10804321 8.80417603 28.10292725 9.74909912 28.09765625 10.72265625 C28.09664917 11.58661011 28.09564209 12.45056396 28.09460449 13.34069824 C28.0893555 16.58131225 28.07539436 19.8219074 28.0625 23.0625 C28.041875 30.301875 28.02125 37.54125 28 45 C43.84 45 59.68 45 76 45 C76 52.59 76 60.18 76 68 C60.16 68 44.32 68 28 68 C28.06174989 85.37613699 28.06174989 85.37613699 28.16015625 102.75195312 C28.20844269 109.84253159 28.25250579 116.93295471 28.27099609 124.02368164 C28.28617928 129.74267945 28.32065508 135.46126995 28.36830902 141.18008614 C28.38310555 143.35803238 28.39104002 145.53603678 28.39188385 147.71403313 C28.39426039 150.77325349 28.42139637 153.8313545 28.45410156 156.89038086 C28.4490712 157.78374649 28.44404083 158.67711212 28.43885803 159.59754944 C28.56197369 167.07832963 30.62602262 172.96658446 35.25 178.875 C43.23936687 185.04860167 51.89985597 184.36674177 61.5 184.1875 C62.90883986 184.17242613 64.31769532 184.1587425 65.7265625 184.14648438 C69.15120902 184.11129965 72.57565544 184.05749832 76 184 C76 191.92 76 199.84 76 208 C55.7247481 211.48821538 34.05031442 212.46918617 16 201 C7.63475622 195.07262727 2.65333942 184.58198117 0.91967773 174.67749023 C-0.56338622 164.53015946 -0.24667026 154.30560599 -0.1953125 144.07421875 C-0.19157559 141.87319569 -0.18873182 139.67217096 -0.18673706 137.47114563 C-0.179154 131.71895639 -0.15955208 125.9668705 -0.1373291 120.21472168 C-0.11675505 114.32870887 -0.10771078 108.44267914 -0.09765625 102.55664062 C-0.07630049 91.03770805 -0.0411626 79.51887884 0 68 C-10.56 68 -21.12 68 -32 68 C-32 60.41 -32 52.82 -32 45 C-21.44 45 -10.88 45 0 45 C0 30.15 0 15.3 0 0 Z " fill="#F2F2F2" transform="translate(1924,47)"/>
<path d="M0 0 C8.91 0 17.82 0 27 0 C27 62.7 27 125.4 27 190 C60 190 93 190 127 190 C127 198.58 127 207.16 127 216 C85.09 216 43.18 216 0 216 C0 144.72 0 73.44 0 0 Z " fill="#F1F1F1" transform="translate(684,343)"/>
<path d="M0 0 C9.24 0 18.48 0 28 0 C28.06956974 22.20147554 28.12304667 44.40292465 28.15543652 66.60448742 C28.17087818 76.91401579 28.19191588 87.22347501 28.22631836 97.53295898 C28.2563036 106.52303358 28.27559461 115.51305806 28.28226548 124.50318128 C28.28616233 129.25945416 28.2952637 134.01558376 28.31719017 138.77181053 C28.33769975 143.25744383 28.34380484 147.74287613 28.33932304 152.22855186 C28.34014182 153.86629838 28.34602067 155.5040523 28.35761642 157.14175797 C28.4396032 169.32879868 27.75219342 181.19216116 21.5625 192 C20.98628906 193.03125 20.41007813 194.0625 19.81640625 195.125 C11.64655437 208.05620642 -1.16660567 215.2926709 -15.8125 218.875 C-33.86626682 222.24129614 -51.25015204 219.73284018 -67 210 C-79.08680569 200.93902939 -87.96350131 188.90644813 -91 174 C-67.85449152 167.21767461 -67.85449152 167.21767461 -63 169 C-61.515625 171.44140625 -61.515625 171.44140625 -60.25 174.5625 C-56.69614587 182.12906031 -52.57050422 187.0499182 -44.77734375 190.375 C-32.98821439 194.27312773 -24.13436948 193.00343564 -12.81640625 188.04296875 C-6.61443119 184.35493458 -3.57546579 176.89492644 -1.43713474 170.251194 C-0.84315817 167.19228248 -0.85806167 164.25751958 -0.84178162 161.14105225 C-0.83684364 160.45159775 -0.83190566 159.76214325 -0.82681805 159.0517962 C-0.81146513 156.74254101 -0.80308843 154.43331357 -0.79467773 152.12402344 C-0.78509748 150.46827958 -0.77508731 148.81253817 -0.76467896 147.15679932 C-0.73763985 142.66132738 -0.71662488 138.16584496 -0.69667697 133.67033672 C-0.67481131 128.97244543 -0.64742545 124.27458643 -0.62062073 119.57672119 C-0.57070171 110.68038108 -0.52575993 101.78402305 -0.48259836 92.88764787 C-0.43321925 82.75955237 -0.37830361 72.63148928 -0.32291877 62.50342512 C-0.20911086 41.66898009 -0.10246559 20.83450363 0 0 Z " fill="#F2F2F2" transform="translate(751,39)"/>
<path d="M0 0 C1.19794189 -0.00315216 2.39588379 -0.00630432 3.63012695 -0.009552 C4.93425537 -0.00752777 6.23838379 -0.00550354 7.58203125 -0.00341797 C8.9234214 -0.00409107 10.26481144 -0.00506115 11.60620117 -0.00631714 C14.42074746 -0.00779382 17.23526207 -0.00564051 20.04980469 -0.00097656 C23.66493756 0.00472073 27.2799962 0.00144156 30.89512634 -0.00454903 C33.66598067 -0.00815544 36.43681727 -0.00701569 39.20767212 -0.00442123 C41.19142708 -0.0034258 43.17518272 -0.00647288 45.15893555 -0.009552 C46.35687744 -0.00639984 47.55481934 -0.00324768 48.7890625 0 C49.84971924 0.00079559 50.91037598 0.00159119 52.00317383 0.00241089 C54.39453125 0.12939453 54.39453125 0.12939453 55.39453125 1.12939453 C55.49363685 2.99575241 55.52252386 4.86587647 55.52392578 6.73486328 C55.52707794 7.93280518 55.5302301 9.13074707 55.53347778 10.36499023 C55.53145355 11.66911865 55.52942932 12.97324707 55.52734375 14.31689453 C55.52801685 15.65828468 55.52898693 16.99967472 55.53024292 18.34106445 C55.53171961 21.15561074 55.52956629 23.97012535 55.52490234 26.78466797 C55.51920506 30.39980084 55.52248422 34.01485948 55.52847481 37.62998962 C55.53208122 40.40084395 55.53094147 43.17168055 55.52834702 45.9425354 C55.52735158 47.92629036 55.53039866 49.910046 55.53347778 51.89379883 C55.52874954 53.69071167 55.52874954 53.69071167 55.52392578 55.52392578 C55.52313019 56.58458252 55.52233459 57.64523926 55.52151489 58.73803711 C55.39453125 61.12939453 55.39453125 61.12939453 54.39453125 62.12939453 C52.52817337 62.22850014 50.65804931 62.25738714 48.7890625 62.25878906 C47.59112061 62.26194122 46.39317871 62.26509338 45.15893555 62.26834106 C43.85480713 62.26631683 42.55067871 62.2642926 41.20703125 62.26220703 C39.8656411 62.26288013 38.52425106 62.26385021 37.18286133 62.2651062 C34.36831504 62.26658289 31.55380043 62.26442957 28.73925781 62.25976562 C25.12412494 62.25406834 21.5090663 62.2573475 17.89393616 62.26333809 C15.12308183 62.2669445 12.35224523 62.26580475 9.58139038 62.2632103 C7.59763542 62.26221486 5.61387978 62.26526194 3.63012695 62.26834106 C2.43218506 62.2651889 1.23424316 62.26203674 0 62.25878906 C-1.06065674 62.25799347 -2.12131348 62.25719788 -3.21411133 62.25637817 C-5.60546875 62.12939453 -5.60546875 62.12939453 -6.60546875 61.12939453 C-6.70457435 59.26303665 -6.73346136 57.39291259 -6.73486328 55.52392578 C-6.73801544 54.32598389 -6.7411676 53.12804199 -6.74441528 51.89379883 C-6.74239105 50.58967041 -6.74036682 49.28554199 -6.73828125 47.94189453 C-6.73895435 46.60050438 -6.73992443 45.25911434 -6.74118042 43.91772461 C-6.74265711 41.10317832 -6.74050379 38.28866371 -6.73583984 35.47412109 C-6.73014256 31.85898822 -6.73342172 28.24392958 -6.73941231 24.62879944 C-6.74301872 21.85794511 -6.74187897 19.08710851 -6.73928452 16.31625366 C-6.73828908 14.3324987 -6.74133616 12.34874306 -6.74441528 10.36499023 C-6.74126312 9.16704834 -6.73811096 7.96910645 -6.73486328 6.73486328 C-6.73406769 5.67420654 -6.73327209 4.6135498 -6.73245239 3.52075195 C-6.49155762 -1.01578115 -3.96654277 0.00297528 0 0 Z " fill="#DB8D35" transform="translate(478.60546875,51.87060546875)"/>
</svg>
