<svg width="500" height="143" viewBox="0 0 500 143" fill="none" xmlns="http://www.w3.org/2000/svg">
<path d="M109.781 141.944C105.822 141.944 69.4775 141.944 69.4775 141.944V129.131V116.317H102.579C102.579 116.317 114.68 116.317 114.68 104.998V40.342H138.208V104.998C138.208 117.121 135.766 126.309 130.88 132.563C125.995 138.817 118.962 141.944 109.781 141.944Z" fill="#0A0943"/>
<rect x="111.314" width="26.8946" height="26.8946" rx="5" fill="#FD951F"/>
<rect x="57.5244" y="40.342" width="40.3407" height="40.3432" rx="5" fill="#1EEB96"/>
<rect y="89.4973" width="52.6687" height="52.6687" rx="5" fill="#5062FF"/>
<path d="M180.044 58.608C176.284 58.608 173.096 57.587 170.481 55.545C167.867 53.503 166.074 50.7637 165.103 47.3272L171.714 45.7584C172.113 47.5762 173.071 49.1202 174.59 50.3902C176.134 51.6602 177.902 52.2952 179.895 52.2952C181.19 52.2952 182.509 51.984 183.854 51.3614C185.199 50.7139 186.232 49.668 186.954 48.2237C187.452 47.2276 187.739 46.1319 187.814 44.9366C187.888 43.7164 187.926 42.2845 187.926 40.6409V3.73547H194.649V40.6409C194.649 42.1849 194.637 43.5669 194.612 44.7872C194.612 46.0074 194.487 47.1778 194.238 48.2984C194.014 49.3941 193.566 50.5147 192.894 51.6602C191.549 54.026 189.744 55.7816 187.477 56.9271C185.236 58.0477 182.758 58.608 180.044 58.608Z" fill="#0A0943"/>
<path d="M218.936 58.5707C216.346 58.5707 214.117 58.1598 212.249 57.338C210.407 56.5162 208.875 55.4205 207.655 54.0509C206.435 52.6812 205.476 51.1622 204.779 49.4937C204.081 47.8253 203.583 46.1194 203.284 44.3763C203.01 42.6331 202.874 41.002 202.874 39.4829V17.1828H209.597V37.3911C209.597 39.2837 209.771 41.114 210.12 42.8821C210.469 44.6502 211.054 46.244 211.876 47.6634C212.722 49.0828 213.843 50.2034 215.238 51.0252C216.657 51.847 218.425 52.2579 220.542 52.2579C222.21 52.2579 223.729 51.9715 225.099 51.3988C226.469 50.826 227.639 49.9793 228.61 48.8587C229.581 47.7132 230.328 46.2689 230.851 44.5257C231.374 42.7825 231.636 40.753 231.636 38.437L236.006 39.7818C236.006 43.6665 235.297 47.0159 233.877 49.8299C232.483 52.6439 230.503 54.8104 227.938 56.3294C225.398 57.8236 222.397 58.5707 218.936 58.5707ZM232.383 57.5248V46.7296H231.636V17.1828H238.322V57.5248H232.383Z" fill="#0A0943"/>
<path d="M262.377 58.6454C258.617 58.6454 255.392 57.7115 252.703 55.8438C250.013 53.9513 247.934 51.3988 246.465 48.1863C245.02 44.9739 244.298 41.3506 244.298 37.3164C244.298 33.2822 245.02 29.6589 246.465 26.4465C247.934 23.2341 250.013 20.7065 252.703 18.8637C255.392 16.996 258.605 16.0622 262.34 16.0622C266.15 16.0622 269.35 16.9836 271.94 18.8264C274.53 20.6691 276.485 23.1967 277.804 26.4092C279.149 29.6216 279.821 33.2573 279.821 37.3164C279.821 41.3257 279.149 44.949 277.804 48.1863C276.485 51.3988 274.53 53.9513 271.94 55.8438C269.35 57.7115 266.162 58.6454 262.377 58.6454ZM263.199 52.5567C265.913 52.5567 268.142 51.9093 269.885 50.6143C271.629 49.2945 272.911 47.4891 273.733 45.1981C274.58 42.8821 275.003 40.2549 275.003 37.3164C275.003 34.3281 274.58 31.7009 273.733 29.4348C272.911 27.1438 271.641 25.3632 269.923 24.0932C268.205 22.7983 266.026 22.1508 263.386 22.1508C260.647 22.1508 258.38 22.8232 256.588 24.1679C254.819 25.5127 253.5 27.3305 252.628 29.6216C251.781 31.9126 251.358 34.4775 251.358 37.3164C251.358 40.1802 251.794 42.7701 252.665 45.086C253.537 47.377 254.844 49.1949 256.588 50.5396C258.356 51.8844 260.559 52.5567 263.199 52.5567ZM275.003 57.5248V27.8286H274.256V3.73547H280.942V57.5248H275.003Z" fill="#0A0943"/>
<path d="M305.49 76.5751C303.373 76.5751 301.306 76.2514 299.289 75.6039C297.272 74.9565 295.417 73.9728 293.723 72.653C292.055 71.3581 290.66 69.7145 289.54 67.7223L295.629 64.5099C296.625 66.4772 298.032 67.9091 299.849 68.8056C301.692 69.7021 303.585 70.1503 305.527 70.1503C308.092 70.1503 310.221 69.6772 311.915 68.7309C313.608 67.8095 314.853 66.4274 315.65 64.5846C316.472 62.7418 316.87 60.4508 316.845 57.7115V46.6922H317.63V17.1828H323.532V57.7862C323.532 58.8819 323.494 59.9403 323.42 60.9613C323.37 61.9823 323.245 62.9908 323.046 63.9869C322.523 66.8507 321.49 69.204 319.946 71.0468C318.402 72.9145 316.41 74.2966 313.969 75.193C311.529 76.1144 308.702 76.5751 305.49 76.5751ZM305.004 58.6454C301.244 58.6454 298.019 57.7115 295.33 55.8438C292.64 53.9513 290.561 51.3988 289.092 48.1863C287.647 44.9739 286.925 41.3506 286.925 37.3164C286.925 33.2822 287.647 29.6589 289.092 26.4465C290.561 23.2341 292.64 20.7065 295.33 18.8637C298.019 16.996 301.232 16.0622 304.967 16.0622C308.777 16.0622 311.977 16.9836 314.567 18.8264C317.157 20.6691 319.112 23.1967 320.431 26.4092C321.776 29.6216 322.448 33.2573 322.448 37.3164C322.448 41.3257 321.776 44.949 320.431 48.1863C319.112 51.3988 317.157 53.9513 314.567 55.8438C311.977 57.7115 308.789 58.6454 305.004 58.6454ZM305.826 52.5567C308.54 52.5567 310.769 51.9093 312.512 50.6143C314.256 49.2945 315.538 47.4891 316.36 45.1981C317.206 42.8821 317.63 40.2549 317.63 37.3164C317.63 34.3281 317.206 31.7009 316.36 29.4348C315.538 27.1438 314.268 25.3632 312.55 24.0932C310.831 22.7983 308.652 22.1508 306.013 22.1508C303.274 22.1508 301.007 22.8232 299.214 24.1679C297.446 25.5127 296.127 27.3305 295.255 29.6216C294.408 31.9126 293.985 34.4775 293.985 37.3164C293.985 40.1802 294.421 42.7701 295.292 45.086C296.164 47.377 297.471 49.1949 299.214 50.5396C300.983 51.8844 303.186 52.5567 305.826 52.5567Z" fill="#0A0943"/>
<path d="M379.944 57.5248L379.981 31.7134C379.981 28.7002 379.172 26.3469 377.553 24.6535C375.96 22.9353 373.88 22.0761 371.315 22.0761C369.821 22.0761 368.402 22.4248 367.057 23.122C365.712 23.7944 364.616 24.8652 363.77 26.3344C362.923 27.7788 362.5 29.634 362.5 31.9001L358.989 30.4807C358.939 27.6169 359.524 25.1142 360.744 22.9726C361.989 20.8061 363.683 19.1252 365.824 17.9299C367.966 16.7346 370.381 16.1369 373.071 16.1369C377.279 16.1369 380.591 17.4194 383.007 19.9843C385.422 22.5244 386.63 25.9485 386.63 30.2566L386.593 57.5248H379.944ZM331.683 57.5248V17.1828H337.622V27.978H338.369V57.5248H331.683ZM355.851 57.5248L355.888 31.9749C355.888 28.8869 355.091 26.4714 353.498 24.7282C351.904 22.9602 349.787 22.0761 347.147 22.0761C344.533 22.0761 342.416 22.9726 340.797 24.7656C339.179 26.5586 338.369 28.9368 338.369 31.9001L334.858 29.8083C334.858 27.1936 335.481 24.8527 336.726 22.7858C337.971 20.7189 339.664 19.1003 341.806 17.9299C343.947 16.7346 346.375 16.1369 349.09 16.1369C351.804 16.1369 354.17 16.7096 356.187 17.8552C358.204 19.0007 359.76 20.6442 360.856 22.7858C361.952 24.9026 362.5 27.4302 362.5 30.3686L362.462 57.5248H355.851Z" fill="#0A0943"/>
<path d="M411.235 58.6454C407.276 58.6454 403.814 57.7738 400.851 56.0306C397.912 54.2625 395.621 51.8096 393.978 48.6719C392.334 45.5093 391.512 41.8238 391.512 37.6153C391.512 33.2075 392.322 29.3974 393.94 26.185C395.559 22.9477 397.813 20.4575 400.701 18.7143C403.615 16.9462 407.027 16.0622 410.936 16.0622C414.995 16.0622 418.444 16.996 421.283 18.8637C424.147 20.7314 426.289 23.396 427.708 26.8574C429.153 30.3188 429.775 34.4402 429.576 39.2215H422.852V36.8308C422.777 31.8752 421.769 28.1772 419.827 25.7368C417.884 23.2714 414.995 22.0388 411.16 22.0388C407.052 22.0388 403.926 23.3586 401.785 25.9983C399.643 28.6379 398.572 32.4231 398.572 37.3538C398.572 42.1101 399.643 45.7957 401.785 48.4105C403.926 51.0252 406.977 52.3326 410.936 52.3326C413.601 52.3326 415.917 51.7225 417.884 50.5023C419.851 49.2821 421.395 47.5264 422.516 45.2354L428.903 47.4393C427.335 51.0003 424.969 53.7645 421.806 55.7318C418.669 57.6742 415.145 58.6454 411.235 58.6454ZM396.331 39.2215V33.8799H426.139V39.2215H396.331Z" fill="#0A0943"/>
<path d="M463.282 57.5248V37.3164C463.282 35.3989 463.107 33.5562 462.759 31.7881C462.435 30.02 461.85 28.4387 461.003 27.0442C460.181 25.6247 459.061 24.5041 457.641 23.6823C456.247 22.8606 454.479 22.4497 452.337 22.4497C450.669 22.4497 449.15 22.736 447.78 23.3088C446.435 23.8567 445.277 24.7033 444.306 25.8488C443.335 26.9944 442.575 28.4387 442.027 30.1819C441.505 31.9001 441.243 33.9297 441.243 36.2705L436.873 34.9258C436.873 31.0161 437.57 27.6667 438.964 24.8777C440.384 22.0637 442.364 19.9096 444.904 18.4155C447.469 16.8964 450.482 16.1369 453.943 16.1369C456.558 16.1369 458.787 16.5478 460.63 17.3696C462.472 18.1913 464.004 19.2871 465.224 20.6567C466.444 22.0014 467.403 23.5205 468.1 25.2138C468.798 26.8823 469.283 28.5881 469.557 30.3313C469.856 32.0496 470.005 33.6807 470.005 35.2246V57.5248H463.282ZM434.519 57.5248V17.1828H440.496V27.978H441.243V57.5248H434.519Z" fill="#0A0943"/>
<path d="M500 57.5248C497.609 57.9979 495.243 58.1847 492.903 58.0851C490.587 58.0104 488.52 57.5497 486.702 56.703C484.884 55.8314 483.502 54.4867 482.556 52.6688C481.759 51.075 481.323 49.4688 481.248 47.8502C481.198 46.2066 481.174 44.3514 481.174 42.2845V5.97669H487.822V41.9856C487.822 43.6292 487.835 45.0362 487.86 46.2066C487.91 47.377 488.171 48.3856 488.644 49.2322C489.541 50.826 490.96 51.7598 492.903 52.0338C494.87 52.3077 497.236 52.233 500 51.8096V57.5248ZM472.993 22.6738V17.1828H500V22.6738H472.993Z" fill="#0A0943"/>
<path d="M171.079 139.703V85.9135H177.728V133.39H202.68V139.703H171.079Z" fill="#0A0943"/>
<path d="M218.225 140.823C215.212 140.823 212.684 140.276 210.642 139.18C208.625 138.059 207.094 136.59 206.048 134.772C205.027 132.954 204.516 130.962 204.516 128.796C204.516 126.679 204.915 124.849 205.712 123.305C206.534 121.736 207.679 120.441 209.148 119.42C210.618 118.374 212.373 117.552 214.415 116.954C216.333 116.431 218.474 115.983 220.84 115.61C223.231 115.211 225.646 114.85 228.087 114.526C230.527 114.203 232.806 113.891 234.922 113.593L232.532 114.975C232.606 111.389 231.884 108.737 230.365 107.018C228.871 105.3 226.281 104.441 222.596 104.441C220.155 104.441 218.014 105.001 216.171 106.122C214.353 107.218 213.07 109.011 212.323 111.501L206.011 109.596C206.982 106.06 208.862 103.283 211.651 101.266C214.44 99.2488 218.113 98.2403 222.67 98.2403C226.331 98.2403 229.469 98.9002 232.084 100.22C234.723 101.515 236.616 103.482 237.761 106.122C238.334 107.367 238.695 108.724 238.845 110.193C238.994 111.638 239.069 113.157 239.069 114.751V139.703H233.167V130.028L234.549 130.925C233.03 134.187 230.901 136.652 228.161 138.321C225.447 139.989 222.135 140.823 218.225 140.823ZM219.234 135.258C221.624 135.258 223.691 134.834 225.435 133.988C227.203 133.116 228.622 131.983 229.693 130.589C230.764 129.169 231.461 127.625 231.785 125.957C232.158 124.712 232.357 123.329 232.382 121.81C232.432 120.266 232.457 119.084 232.457 118.262L234.773 119.27C232.606 119.569 230.477 119.856 228.385 120.13C226.294 120.403 224.314 120.702 222.446 121.026C220.579 121.325 218.898 121.686 217.404 122.109C216.308 122.458 215.274 122.906 214.303 123.454C213.357 124.002 212.585 124.712 211.987 125.583C211.414 126.43 211.128 127.488 211.128 128.758C211.128 129.854 211.402 130.9 211.95 131.896C212.523 132.892 213.394 133.701 214.565 134.324C215.76 134.946 217.316 135.258 219.234 135.258Z" fill="#0A0943"/>
<path d="M265.067 140.823C261.282 140.823 258.094 139.89 255.504 138.022C252.914 136.129 250.947 133.577 249.602 130.364C248.283 127.127 247.623 123.504 247.623 119.494C247.623 115.435 248.283 111.8 249.602 108.587C250.947 105.375 252.914 102.847 255.504 101.004C258.119 99.1616 261.319 98.2403 265.104 98.2403C268.84 98.2403 272.052 99.1741 274.741 101.042C277.456 102.885 279.535 105.412 280.979 108.625C282.424 111.837 283.146 115.46 283.146 119.494C283.146 123.529 282.424 127.152 280.979 130.364C279.535 133.577 277.456 136.129 274.741 138.022C272.052 139.89 268.827 140.823 265.067 140.823ZM246.502 139.703V85.9135H253.188V110.007H252.441V139.703H246.502ZM264.245 134.735C266.91 134.735 269.113 134.062 270.857 132.718C272.6 131.373 273.907 129.555 274.779 127.264C275.65 124.948 276.086 122.358 276.086 119.494C276.086 116.656 275.65 114.091 274.779 111.8C273.932 109.509 272.612 107.691 270.819 106.346C269.051 105.001 266.798 104.329 264.058 104.329C261.443 104.329 259.277 104.976 257.559 106.271C255.84 107.541 254.558 109.322 253.711 111.613C252.865 113.879 252.441 116.506 252.441 119.494C252.441 122.433 252.852 125.06 253.674 127.376C254.521 129.667 255.816 131.473 257.559 132.792C259.302 134.087 261.531 134.735 264.245 134.735Z" fill="#0A0943"/>
<path d="M303.75 140.786C298.944 140.786 294.997 139.74 291.909 137.648C288.846 135.532 286.966 132.581 286.268 128.796L293.067 127.712C293.615 129.904 294.872 131.647 296.84 132.942C298.807 134.212 301.247 134.847 304.161 134.847C306.925 134.847 309.092 134.274 310.66 133.129C312.229 131.983 313.014 130.427 313.014 128.459C313.014 127.314 312.752 126.392 312.229 125.695C311.706 124.973 310.623 124.301 308.98 123.678C307.361 123.056 304.908 122.308 301.621 121.437C298.06 120.491 295.258 119.507 293.216 118.486C291.174 117.465 289.717 116.282 288.846 114.937C287.974 113.593 287.539 111.962 287.539 110.044C287.539 107.678 288.186 105.611 289.481 103.843C290.776 102.05 292.581 100.668 294.897 99.6971C297.238 98.7259 299.952 98.2403 303.04 98.2403C306.103 98.2403 308.843 98.7259 311.258 99.6971C313.674 100.668 315.616 102.05 317.085 103.843C318.579 105.611 319.463 107.678 319.737 110.044L312.939 111.277C312.615 109.11 311.569 107.404 309.801 106.159C308.058 104.914 305.804 104.254 303.04 104.179C300.426 104.08 298.296 104.541 296.653 105.562C295.034 106.583 294.225 107.965 294.225 109.708C294.225 110.679 294.524 111.513 295.121 112.211C295.744 112.908 296.877 113.568 298.52 114.19C300.189 114.813 302.605 115.523 305.767 116.319C309.328 117.216 312.13 118.2 314.172 119.27C316.239 120.316 317.708 121.561 318.579 123.006C319.451 124.425 319.887 126.181 319.887 128.273C319.887 132.157 318.455 135.22 315.591 137.462C312.727 139.678 308.78 140.786 303.75 140.786Z" fill="#0A0943"/>
</svg>
