<svg width="1089" height="287" viewBox="0 0 1089 287" fill="none" xmlns="http://www.w3.org/2000/svg">
<path d="M349.6 108.82V102.34H366.7V108.82C366.7 121.6 373.72 130.78 388.12 130.78C402.88 130.78 409.36 121.78 409.36 108.28V14.86H427V109C427 132.4 411.34 147.16 388.12 147.16C363.28 147.16 349.6 131.32 349.6 108.82ZM458.992 107.734C458.992 124.258 467.078 131.113 479.91 131.113C492.215 131.113 501.707 121.797 501.707 108.789V55H519.109V145H501.707V130.938C495.203 141.484 484.305 147.285 473.934 147.285C454.949 147.285 441.414 134.629 441.414 111.426V55H458.992V107.734ZM612.766 18.9648V145H595.363V128.652C589.035 140.254 578.488 146.934 565.305 146.934C542.102 146.934 526.633 128.125 526.633 99.6484C526.633 71.3477 542.102 52.7148 565.305 52.7148C578.488 52.7148 589.035 59.3945 595.363 70.8203V18.9648H612.766ZM544.562 99.6484C544.562 119.863 553.879 131.465 569.875 131.465C586.047 131.465 595.363 119.863 595.363 99.6484C595.363 79.7852 586.047 68.1836 569.875 68.1836C553.879 68.1836 544.562 79.7852 544.562 99.6484ZM706.422 55V146.934C706.422 166.973 690.25 180.332 665.465 180.332C641.207 180.332 624.332 168.379 621.52 150.273H639.449C640.68 159.941 650.172 165.918 664.938 165.918C680.23 165.918 689.02 158.711 689.02 146.055V125.488C682.691 136.562 671.969 143.242 658.785 143.242C635.758 143.242 620.289 125.137 620.289 97.8906C620.289 70.8203 635.758 52.7148 658.785 52.7148C671.969 52.7148 682.691 59.2188 689.02 70.293V55H706.422ZM638.219 97.8906C638.219 116.699 647.535 127.598 663.707 127.598C679.879 127.598 689.02 116.699 689.02 97.8906C689.02 79.082 679.879 68.1836 663.707 68.1836C647.535 68.1836 638.219 79.082 638.219 97.8906ZM773.887 91.7383C773.887 75.7422 766.152 68.8867 753.848 68.8867C742.246 68.8867 733.281 77.8516 733.281 90.5078V145H715.703V55H733.281V68.1836C739.609 58.1641 749.98 52.7148 760 52.7148C773.359 52.7148 784.082 59.5703 788.828 72.4023C794.629 59.7461 806.758 52.7148 818.184 52.7148C836.289 52.7148 849.473 65.1953 849.473 88.0469V145H832.07V91.7383C832.07 75.7422 824.336 68.8867 812.031 68.8867C800.43 68.8867 791.289 77.8516 791.289 90.5078V145H773.887V91.7383ZM856.996 99.6484C856.996 70.9961 873.695 53.2422 899.887 53.2422C925.199 53.2422 943.305 72.2266 943.305 98.7695V104.219H875.102C876.332 122.324 885.297 131.816 901.117 131.816C913.949 131.816 921.859 125.664 923.793 115.82H942.25C938.559 135.859 924.496 146.406 900.941 146.406C874.047 146.406 856.996 128.477 856.996 99.6484ZM900.062 66.9531C885.824 66.9531 877.387 75.0391 875.277 91.3867H924.672C923.441 76.4453 913.773 66.9531 900.062 66.9531ZM1012.88 91.7383C1012.88 75.7422 1004.27 68.8867 990.906 68.8867C978.074 68.8867 968.406 77.8516 968.406 90.5078V145H951.004V55H968.406V68.7109C975.086 58.5156 986.336 52.7148 996.883 52.7148C1016.22 52.7148 1030.28 65.1953 1030.28 88.0469V145H1012.88V91.7383ZM1082.63 129.707V145H1073.84C1060.3 145 1049.23 137.617 1049.23 120.215V69.5898H1033.59V55H1049.23V31.6211H1066.63V55H1082.63V69.5898H1066.63V117.93C1066.63 127.246 1070.32 129.707 1075.77 129.707H1082.63ZM426.684 285H355.316V167.93H372.719V268.652H426.684V285ZM505.223 225.938V285H487.645V269.883C481.316 280.43 470.242 286.934 457.059 286.934C439.656 286.934 427.176 275.684 427.176 259.688C427.176 244.395 436.668 235.254 453.719 234.199L477.977 232.441C485.008 231.914 487.645 229.629 487.645 224.18V223.828C487.645 214.16 478.855 206.602 467.605 206.602C454.422 206.602 447.215 212.227 445.984 223.477H427.879C429.109 204.844 444.578 192.891 467.43 192.891C489.578 192.891 505.223 206.777 505.223 225.938ZM444.93 258.984C444.93 267.246 451.961 272.695 462.859 272.695C477.098 272.695 487.645 261.973 487.645 247.734V244.746L459.871 246.504C450.027 247.207 444.93 251.426 444.93 258.984ZM514.68 158.965H532.258V210.82C538.586 199.395 548.957 192.715 562.141 192.715C585.344 192.715 600.812 211.348 600.812 239.648C600.812 268.125 585.344 286.934 562.141 286.934C548.957 286.934 538.586 280.254 532.258 268.652V285H514.68V158.965ZM582.883 239.648C582.883 219.785 573.566 208.184 557.57 208.184C541.398 208.184 532.258 219.785 532.258 239.648C532.258 259.863 541.398 271.465 557.57 271.465C573.566 271.465 582.883 259.863 582.883 239.648ZM651.93 248.086L636.637 246.152C617.301 244.043 607.457 235.957 607.457 220.312C607.457 203.438 621.52 192.891 644.195 192.891C666.168 192.891 680.406 203.965 682.34 222.07H665.113C663.355 211.523 656.852 206.602 644.195 206.602C632.594 206.602 625.035 211.699 625.035 219.258C625.035 226.816 629.957 229.805 639.625 231.035L655.621 232.793C675.484 235.078 684.625 243.867 684.625 260.566C684.625 276.387 670.035 286.758 648.238 286.758C623.98 286.758 608.688 275.508 606.578 257.93H624.684C626.441 268.477 634.176 273.398 648.238 273.398C659.84 273.398 667.574 268.477 667.574 261.094C667.574 253.711 662.477 249.316 651.93 248.086Z" fill="url(#paint0_linear_1684_10)"/>
<g clip-path="url(#clip0_1684_10)">
<path d="M220.781 285.554C214.711 285.554 170.779 285.554 150.248 285.554C144.421 285.554 139.727 280.829 139.727 275V259.777V244.553C139.727 238.724 144.45 233.999 150.277 233.999H206.298C206.298 233.999 230.635 233.999 230.635 211.228V91.711C230.635 85.8823 235.358 81.1575 241.185 81.1575H267.402C273.229 81.1575 277.952 85.8823 277.952 91.711V211.228C277.952 235.616 273.04 254.1 263.215 266.682C253.39 279.263 239.245 285.554 220.781 285.554Z" fill="url(#paint1_linear_1684_10)"/>
<path d="M94.9526 180.465H10.5503C4.72352 180.465 0 185.19 0 191.018V275.446C0 281.275 4.72352 286 10.5503 286H94.9526C100.779 286 105.503 281.275 105.503 275.446V191.018C105.503 185.19 100.779 180.465 94.9526 180.465Z" fill="url(#paint2_linear_1684_10)"/>
<path d="M188.323 81.262H128.714C122.888 81.262 118.164 85.9869 118.164 91.8155V151.443C118.164 157.271 122.888 161.996 128.714 161.996H188.323C194.15 161.996 198.874 157.271 198.874 151.443V91.8155C198.874 85.9869 194.15 81.262 188.323 81.262Z" fill="url(#paint3_linear_1684_10)"/>
<path d="M267.449 14.2473H241.601C235.774 14.2473 231.051 18.9723 231.051 24.8008V50.6569C231.051 56.4854 235.774 61.2104 241.601 61.2104H267.449C273.276 61.2104 278 56.4854 278 50.6569V24.8008C278 18.9723 273.276 14.2473 267.449 14.2473Z" fill="url(#paint4_linear_1684_10)"/>
</g>
<defs>
<linearGradient id="paint0_linear_1684_10" x1="521.5" y1="-1.99999" x2="650.5" y2="620" gradientUnits="userSpaceOnUse">
<stop/>
<stop offset="1" stop-color="#818181"/>
</linearGradient>
<linearGradient id="paint1_linear_1684_10" x1="208.839" y1="81.1575" x2="268" y2="382" gradientUnits="userSpaceOnUse">
<stop/>
<stop offset="1" stop-color="#808080"/>
</linearGradient>
<linearGradient id="paint2_linear_1684_10" x1="52.7514" y1="180.465" x2="70" y2="292.5" gradientUnits="userSpaceOnUse">
<stop stop-color="#3E4EDA"/>
<stop offset="1" stop-color="#5869F9"/>
</linearGradient>
<linearGradient id="paint3_linear_1684_10" x1="158.519" y1="81.262" x2="158.519" y2="161.996" gradientUnits="userSpaceOnUse">
<stop stop-color="#39DAAF"/>
<stop offset="1" stop-color="#79FBD8"/>
</linearGradient>
<linearGradient id="paint4_linear_1684_10" x1="254.525" y1="14.2473" x2="254.525" y2="61.2104" gradientUnits="userSpaceOnUse">
<stop stop-color="#DB8D35"/>
<stop offset="1" stop-color="#FFB868"/>
</linearGradient>
<clipPath id="clip0_1684_10">
<rect width="278" height="286" fill="white"/>
</clipPath>
</defs>
</svg>
